<svg xmlns="http://www.w3.org/2000/svg" viewBox="0 0 35.17 30.46"><defs><style>.cls-1{fill:#47c4ee;}.cls-2{fill:#a4b6d6;}.cls-3{fill:#e9eff2;}.cls-4{fill:#1b2c49;}</style></defs><title>자산 6</title><g id="레이어_2" data-name="레이어 2"><g id="레이어_1-2" data-name="레이어 1"><path class="cls-1" d="M17.58,30.46H0L17.58,0,35.17,30.46Z"/><path class="cls-2" d="M8.79,15.23,5.86,20.3H29.31L23.45,10.15H11.72Z"/><path class="cls-3" d="M5.86,20.3,0,30.46H35.17L29.31,20.3Z"/><path class="cls-4" d="M7.06,13,4.57,10.12a.3.3,0,0,0-.43,0L1.65,13a.29.29,0,0,0,0,.3.3.3,0,0,0,.26.17h1.2v3.8a.28.28,0,0,0,.28.29h2a.28.28,0,0,0,.28-.29v-3.8h1.2a.3.3,0,0,0,.26-.17A.28.28,0,0,0,7.06,13Z"/><path class="cls-4" d="M33.56,14.28a.29.29,0,0,0-.26-.16H32.1V10.31a.27.27,0,0,0-.28-.28h-2a.28.28,0,0,0-.29.28v3.8H28.32a.3.3,0,0,0-.26.17.29.29,0,0,0,0,.3l2.49,2.92a.32.32,0,0,0,.22.1.28.28,0,0,0,.21-.1l2.49-2.92A.3.3,0,0,0,33.56,14.28Z"/><path class="cls-4" d="M17.92,5.21a.37.37,0,0,1,.2.33V8a.26.26,0,0,1-.31.25.27.27,0,0,1-.2-.26V5.76l-.18.11a.21.21,0,0,1-.13,0,.24.24,0,0,1-.21-.12.25.25,0,0,1,.08-.35l.37-.22a.37.37,0,0,1,.38,0Z"/><path class="cls-4" d="M18.65,16.58a.25.25,0,0,1-.25.25H16.77a.27.27,0,0,1-.19-.08.26.26,0,0,1,0-.36L18,15.16a.56.56,0,0,0,.19-.43.59.59,0,0,0-.15-.4.56.56,0,0,0-.44-.19.58.58,0,0,0-.39.15l-.15.12a.24.24,0,0,1-.35,0,.25.25,0,0,1,0-.36l.14-.13a1.06,1.06,0,0,1,.73-.28,1.11,1.11,0,0,1,.82.36,1.07,1.07,0,0,1,.28.74,1.1,1.1,0,0,1-.36.81l-.86.78h1a.26.26,0,0,1,.25.26Z"/><path class="cls-4" d="M18.26,25a1.13,1.13,0,0,1,.33.8,1.17,1.17,0,0,1-.33.81,1.15,1.15,0,0,1-.81.33,1.13,1.13,0,0,1-.8-.33.26.26,0,0,1,.37-.37.6.6,0,0,0,.43.18.61.61,0,0,0,.62-.62.6.6,0,0,0-.18-.43.61.61,0,0,0-.43-.19.2.2,0,0,1-.19-.08h0a.27.27,0,0,1,0-.37l.46-.47H17a.26.26,0,0,1-.26-.26.26.26,0,0,1,.26-.26h1.35a.25.25,0,0,1,.26.26.27.27,0,0,1,0,.12s0,.05,0,.06l-.57.6a1,1,0,0,1,.32.22Z"/></g></g></svg>