<svg xmlns="http://www.w3.org/2000/svg" viewBox="0 0 37.8 38.36"><defs><style>.cls-1{fill:#23628f;}.cls-2{fill:#a4b6d6;}.cls-3{fill:#0a2b42;}.cls-4{fill:#47c4ee;}.cls-5{fill:#91dcf5;}</style></defs><title>자산 4</title><g id="레이어_2" data-name="레이어 2"><g id="레이어_1-2" data-name="레이어 1"><path class="cls-1" d="M5.41,20.06H3.57a.66.66,0,0,0-.65.54L0,35.47A1.34,1.34,0,0,0,.3,36.56a1.33,1.33,0,0,0,1,.48H15.59c0,.73,1.49,1.32,3.31,1.32s3.31-.59,3.31-1.32H36.48a1.31,1.31,0,0,0,1-.48,1.34,1.34,0,0,0,.28-1.09L34.88,20.6a.66.66,0,0,0-.65-.54Z"/><path class="cls-2" d="M18.9,22v12.4a15,15,0,0,0-3-1A22.74,22.74,0,0,0,4.06,34a.65.65,0,0,1-.63-.13.64.64,0,0,1-.22-.61l2.2-13.24.18-1.12a.68.68,0,0,1,.56-.55c.45-.06.91-.13,1.37-.18a4.73,4.73,0,0,0,4.2,2.56h.34a5.12,5.12,0,0,0,1.29-.28.08.08,0,0,0,0,0A3.47,3.47,0,0,0,18.9,22Z"/><path class="cls-2" d="M33.74,34a22.74,22.74,0,0,0-11.83-.6,15.25,15.25,0,0,0-3,1V22a2.73,2.73,0,0,0,.38-.38,5.74,5.74,0,0,0,2.08.4h0a2.37,2.37,0,0,0,.52,1.29,5,5,0,0,0,2.32,1.29,3.65,3.65,0,0,1,1.64,1.09,1.39,1.39,0,0,0,1.62.41,1.37,1.37,0,0,0,.83-1.26,1.47,1.47,0,0,0-.06-.42A6.37,6.37,0,0,0,28,23.8a4.67,4.67,0,0,0-.65-1.15,4.93,4.93,0,0,0,2.51-3.44l.07-.08a3.89,3.89,0,0,0,.55-.89c.38.05.76.09,1.13.15a.68.68,0,0,1,.56.55l.18,1.12L34.6,33.3a.69.69,0,0,1-.22.61.68.68,0,0,1-.64.13Z"/><path class="cls-3" d="M22.21,37c0,.73-1.48,1.32-3.31,1.32s-3.31-.59-3.31-1.32l.3-3.6a15,15,0,0,1,3,1,15.25,15.25,0,0,1,3-1Z"/><path class="cls-4" d="M30.81,16.86a3.41,3.41,0,0,1-.29,1.38,3.89,3.89,0,0,1-.55.89l-.07.08a4.93,4.93,0,0,1-2.51,3.44A4.67,4.67,0,0,1,28,23.8a6.37,6.37,0,0,1,.23.61,1.47,1.47,0,0,1,.06.42,1.37,1.37,0,0,1-.83,1.26,1.39,1.39,0,0,1-1.62-.41,3.65,3.65,0,0,0-1.64-1.09,5,5,0,0,1-2.32-1.29A2.37,2.37,0,0,1,21.4,22h0a5.74,5.74,0,0,1-2.08-.4,2.73,2.73,0,0,1-.38.38,3.47,3.47,0,0,1-5.53-1.47.08.08,0,0,1,0,0,5.12,5.12,0,0,1-1.29.28h-.34a4.73,4.73,0,0,1-3.79-7.55,2,2,0,0,1-.11-.68,2,2,0,0,1,1.64-2h0a2,2,0,0,1,0-.25,2.58,2.58,0,0,1,.22-1.06A2.66,2.66,0,0,1,12.13,7.6a2.73,2.73,0,0,1,1.16.26A3.91,3.91,0,0,1,16.65,6a3.84,3.84,0,0,1,2.56,1,2,2,0,0,1,3.64.29l.57,0a4.94,4.94,0,0,1,4.91,4.52h0a2.07,2.07,0,0,1,2,2.06,2.13,2.13,0,0,1-.27,1,3.51,3.51,0,0,1,.68,2.07Z"/><path class="cls-4" d="M18.9,2a.66.66,0,0,1-.66-.66V.66a.66.66,0,1,1,1.32,0v.66A.65.65,0,0,1,18.9,2Z"/><path class="cls-4" d="M29.56,6.54A.65.65,0,0,1,29,6.13a.66.66,0,0,1,.14-.72l.67-.66a.64.64,0,0,1,.64-.18.66.66,0,0,1,.29,1.11L30,6.34a.63.63,0,0,1-.47.2Z"/><path class="cls-4" d="M8.24,6.54a.67.67,0,0,1-.47-.2l-.66-.66a.66.66,0,1,1,.94-.93l.66.66a.66.66,0,0,1,.14.72.65.65,0,0,1-.61.41Z"/><path class="cls-4" d="M13.33,3.75a.67.67,0,0,1-.61-.4L12,1.51A.68.68,0,0,1,12,.85a.67.67,0,0,1,.62-.26.63.63,0,0,1,.52.42l.76,1.83a.65.65,0,0,1,0,.51.6.6,0,0,1-.35.35.58.58,0,0,1-.26,0Z"/><path class="cls-4" d="M24.47,3.75a.53.53,0,0,1-.25,0,.62.62,0,0,1-.36-.35.65.65,0,0,1,0-.51L24.62,1a.66.66,0,0,1,.52-.42.67.67,0,0,1,.62.26.63.63,0,0,1,.08.66l-.76,1.84a.66.66,0,0,1-.61.4Z"/><path class="cls-4" d="M32.34,11.63a.66.66,0,0,1-.25-1.27l1.84-.76a.65.65,0,0,1,.9.69.65.65,0,0,1-.4.53l-1.83.76a.75.75,0,0,1-.26.05Z"/><path class="cls-4" d="M5.46,11.63a.75.75,0,0,1-.26-.05l-1.83-.76a.65.65,0,0,1-.4-.53.66.66,0,0,1,.25-.61.68.68,0,0,1,.66-.08l1.83.76a.66.66,0,0,1-.25,1.27Z"/><path class="cls-5" d="M30,19.13l-.07.08A5,5,0,0,1,29.19,21a3.89,3.89,0,0,1-1.07.15,4.06,4.06,0,0,1-2.66-1,2.1,2.1,0,0,1-.82.16A2.29,2.29,0,0,1,22.57,19a.67.67,0,0,1,.63-1,.7.7,0,0,1,.56.37,1,1,0,0,0,1.43.36,1,1,0,0,0,.42-.8,1,1,0,0,0-.09-.44.66.66,0,0,1,.31-.85.67.67,0,0,1,.86.25,2.38,2.38,0,0,1,.25,1,2.31,2.31,0,0,1-.42,1.29c.11.07.21.15.32.21a2.88,2.88,0,0,0,1.28.31A2.79,2.79,0,0,0,30,19.13Z"/><path class="cls-5" d="M21.88,16.53A4,4,0,0,0,23.52,14a.66.66,0,0,0-.21-.63.67.67,0,0,0-.66-.13.66.66,0,0,0-.43.52,2.64,2.64,0,0,1-1.1,1.68,2.7,2.7,0,0,1-3.48-.4.66.66,0,0,0-.93-.05.67.67,0,0,0-.05.94,4,4,0,0,0,2.12,1.22,2,2,0,0,1-1.61.83.66.66,0,0,0,0,1.32,3.27,3.27,0,0,0,3.08-2.12,3.88,3.88,0,0,0,1.63-.66Z"/><path class="cls-5" d="M28,23.8a4.94,4.94,0,0,1-1.55.5h-.1a.66.66,0,0,1-.1-1.32,3.8,3.8,0,0,0,1.1-.34A4.67,4.67,0,0,1,28,23.8Z"/><path class="cls-5" d="M13.31,19.18a2.72,2.72,0,0,0,0,1.3,5.12,5.12,0,0,1-1.29.28,4.22,4.22,0,0,1-.13-1,2.29,2.29,0,0,1-2-2.28.66.66,0,0,1,.66-.67A.64.64,0,0,1,11,17a.66.66,0,0,1,.19.46v0a1,1,0,0,0,1,1,4,4,0,0,1,.38-.85.61.61,0,0,1,.4-.3.59.59,0,0,1,.5.08.67.67,0,0,1,.23.91,2.63,2.63,0,0,0-.35.89Z"/><path class="cls-5" d="M23.14,23.05a5.75,5.75,0,0,1-1.22.25A2.37,2.37,0,0,1,21.4,22h.19a5.65,5.65,0,0,0,1.16-.21.66.66,0,0,1,.66.13.69.69,0,0,1,.2.65.67.67,0,0,1-.47.48Z"/><path class="cls-5" d="M17.45,11.24a.67.67,0,0,0-.67-.66,3,3,0,0,0-3,3.05.67.67,0,0,0,1.33,0,1.71,1.71,0,0,1,1.71-1.72.67.67,0,0,0,.67-.67Z"/><path class="cls-5" d="M8.81,15a.69.69,0,0,1-.34-.09,2.71,2.71,0,0,1-1.16-1.44A2.7,2.7,0,0,1,9.87,9.82,2.66,2.66,0,0,1,12,10.91.66.66,0,1,1,11,11.7a1.38,1.38,0,0,0-1.11-.56,1.4,1.4,0,0,0-.71,2.6A.66.66,0,0,1,8.81,15Z"/><path class="cls-5" d="M23,8.67A.65.65,0,0,1,22.35,8a1.4,1.4,0,0,0-2.79,0,.66.66,0,1,1-1.32,0,2.72,2.72,0,0,1,5.43,0,.65.65,0,0,1-.2.47.66.66,0,0,1-.46.19Z"/><path class="cls-5" d="M29.21,16.3A.66.66,0,0,1,28.93,15a1.41,1.41,0,0,0,.63-.58,1.39,1.39,0,0,0-2-1.8.66.66,0,1,1-.79-1.06,2.64,2.64,0,0,1,1.6-.54,2.72,2.72,0,0,1,1.17,5.18.64.64,0,0,1-.28.06Z"/></g></g></svg>