<svg xmlns="http://www.w3.org/2000/svg" viewBox="0 0 38.8 31.99"><defs><style>.cls-1{fill:#47c4ee;}.cls-2{fill:#23628f;}</style></defs><title>자산 5</title><g id="레이어_2" data-name="레이어 2"><g id="레이어_1-2" data-name="레이어 1"><path class="cls-1" d="M9.65,3.48a11.87,11.87,0,0,1,18.25,15l2.23,2.24.33-.33a.45.45,0,0,1,.64,0l7.43,7.43a.92.92,0,0,1,0,1.3L36,31.72a.91.91,0,0,1-1.29,0l-7.43-7.43a.46.46,0,0,1,0-.65l.32-.32-2.13-2.13A11.88,11.88,0,0,1,9.65,3.48Zm2.58,14.21a8.22,8.22,0,1,0,0-11.63A8.24,8.24,0,0,0,12.23,17.69Z"/><path class="cls-2" d="M16.45,11.78a1.14,1.14,0,0,1,1.14-1.15h5.48a1.15,1.15,0,1,1,0,2.29H17.59A1.14,1.14,0,0,1,16.45,11.78ZM3.88,9.37H1.14a1.15,1.15,0,0,1,0-2.29H3.88a1.15,1.15,0,1,1,0,2.29Zm12.8,0H14.85a1.15,1.15,0,0,1,0-2.29h1.83a1.15,1.15,0,0,1,0,2.29Zm3.65,5h.92a1.15,1.15,0,0,1,0,2.29h-.92a1.15,1.15,0,0,1,0-2.29Zm.92-5h-.92a1.15,1.15,0,0,1,0-2.29h.92a1.15,1.15,0,0,1,0,2.29Zm-20.11,5H3.88a1.15,1.15,0,1,1,0,2.29H1.14a1.15,1.15,0,0,1,0-2.29Zm0-3.76H3a1.15,1.15,0,0,1,0,2.29H1.14a1.15,1.15,0,0,1,0-2.29Zm11.88,0h.92a1.15,1.15,0,0,1,0,2.29H13a1.15,1.15,0,0,1,0-2.29Zm1.83,3.76h1.83a1.15,1.15,0,0,1,0,2.29H14.85a1.15,1.15,0,0,1,0-2.29Z"/></g></g></svg>