<svg xmlns="http://www.w3.org/2000/svg" viewBox="0 0 17.12 19.53"><defs><style>.cls-1{fill:#fff;}</style></defs><title>자산 5</title><g id="레이어_2" data-name="레이어 2"><g id="레이어_1-2" data-name="레이어 1"><path class="cls-1" d="M13.82,4.25a2.1,2.1,0,0,1-1.51-.64,2.08,2.08,0,0,1-.61-1.52,2.13,2.13,0,0,1,4.25,0A2.13,2.13,0,0,1,13.82,4.25Zm0-3.51a1.29,1.29,0,0,0-.43.07,1.32,1.32,0,0,0-.88.88,1.39,1.39,0,0,0,1.31,1.82,1.39,1.39,0,1,0,0-2.77Z"/><path class="cls-1" d="M13.1,19.53a.85.85,0,0,1-.85-.78l-.49-5.91a1.54,1.54,0,0,0-.45-1l-.44-.44a1.15,1.15,0,0,1-.34-.82V8a3.3,3.3,0,0,1,3.29-3.29H14a3.37,3.37,0,0,1,3.09,3.42v2.5a1.15,1.15,0,0,1-.34.82l-.45.44a1.58,1.58,0,0,0-.44,1l-.49,5.91a.86.86,0,0,1-.86.78Zm.72-14.11A2.55,2.55,0,0,0,11.27,8v2.37a1.08,1.08,0,0,0,.31.76l.42.42a1.62,1.62,0,0,1,.47,1l.46,5.53a.79.79,0,0,0,.79.72h.21a.78.78,0,0,0,.78-.72l.46-5.53a1.62,1.62,0,0,1,.47-1l.42-.42a1.09,1.09,0,0,0,.32-.76V8.07a2.61,2.61,0,0,0-2.24-2.63A1.72,1.72,0,0,0,13.82,5.42Z"/><path class="cls-1" d="M3.88,6a.36.36,0,0,1-.26-.11L2.45,4.73a.37.37,0,0,1,0-.53A.36.36,0,0,1,3,4.2l.91.91L6,3a.36.36,0,0,1,.52,0,.39.39,0,0,1,0,.53L4.14,5.89A.36.36,0,0,1,3.88,6Z"/><path class="cls-1" d="M5.63,16.57a.38.38,0,0,1-.26-.11l-.91-.91-.9.91a.39.39,0,0,1-.27.11A.38.38,0,0,1,3,16.46a.37.37,0,0,1,0-.52L3.94,15,3,14.12a.37.37,0,0,1,0-.52.38.38,0,0,1,.26-.11.39.39,0,0,1,.27.11l.9.91.91-.91a.38.38,0,0,1,.26-.11.39.39,0,0,1,.27.11.37.37,0,0,1,0,.52L5,15l.91.91a.37.37,0,0,1,0,.52A.39.39,0,0,1,5.63,16.57Z"/><path class="cls-1" d="M4.46,9a4.49,4.49,0,0,1,0-9A5.25,5.25,0,0,1,5,0,4.49,4.49,0,0,1,4.46,9Zm0-8.23A3.75,3.75,0,1,0,8.19,4.46,3.73,3.73,0,0,0,4.46.74Z"/><path class="cls-1" d="M4.46,19.53a4.48,4.48,0,0,1,0-9,5.25,5.25,0,0,1,.56,0,4.48,4.48,0,0,1-.56,8.93Zm0-8.22A3.74,3.74,0,1,0,8.19,15,3.73,3.73,0,0,0,4.46,11.31Z"/></g></g></svg>