<svg xmlns="http://www.w3.org/2000/svg" viewBox="0 0 21.11 21.11"><defs><style>.cls-1{fill:#fff;}</style></defs><title>자산 4</title><g id="레이어_2" data-name="레이어 2"><g id="레이어_1-2" data-name="레이어 1"><path class="cls-1" d="M19.67,12V10.25a.34.34,0,0,0-.34-.33h-.45V3.79l.56-.19a.34.34,0,0,0,0-.64L10.66,0a.26.26,0,0,0-.21,0L1.67,3a.34.34,0,0,0,0,.64l2.86,1V9.8c0,.22,0,.55,2,.89a24.13,24.13,0,0,0,4.07.34,24.16,24.16,0,0,0,4.08-.34c1.95-.34,1.95-.67,1.95-.89V4.56L18.21,4v5.9h-.45a.34.34,0,0,0-.34.33V12H1.82C.8,12,0,13.33,0,15.05s.79,3.07,1.81,3.1H8.09l-1,2.5a.34.34,0,0,0,.49.41l1.11-.67.41.58a.35.35,0,0,0,.28.14h0a.34.34,0,0,0,.27-.22l.84-2.15.85,2.16a.35.35,0,0,0,.27.21h0A.35.35,0,0,0,12,21l.41-.58,1.11.67a.34.34,0,0,0,.49-.41l-1-2.5h6.24c1,0,1.85-1.36,1.85-3.1,0-1.5-.6-2.72-1.44-3ZM10.55.69l7.72,2.59L10.55,5.87,2.84,3.28Zm5.35,9a16.71,16.71,0,0,1-5.35.68,16.68,16.68,0,0,1-5.34-.68V4.79l5.24,1.76a.37.37,0,0,0,.21,0L15.9,4.79Zm2.2.92H19v2.18l-.23-.2a.35.35,0,0,0-.45,0l-.22.2Zm-5.48,4.46c0,1.43-.62,2.43-1.17,2.43h-.63a4.12,4.12,0,0,0,.69-2.43,4.11,4.11,0,0,0-.69-2.42h.63c.55,0,1.17,1,1.17,2.42ZM3,17.48a4.12,4.12,0,0,0,.69-2.43A4.11,4.11,0,0,0,3,12.63H9.66c.56,0,1.18,1,1.18,2.42s-.62,2.43-1.18,2.43ZM2,15.39H3a2.45,2.45,0,0,1-.95,2,2.44,2.44,0,0,1,0-2ZM.67,15.05c0-1.43.62-2.42,1.18-2.42s1.07.84,1.16,2.09H1.85a.32.32,0,0,0-.25.1,2.57,2.57,0,0,0-.34,2.31,3.41,3.41,0,0,1-.59-2.08Zm8.64,5-.24-.33a.34.34,0,0,0-.45-.09L8.1,20l.71-1.81h1.25ZM13,20l-.51-.31a.34.34,0,0,0-.45.09l-.24.33-.75-1.92H12.3Zm6.26-2.48H12.61a4.15,4.15,0,0,0,.68-2.43,4.11,4.11,0,0,0-.68-2.42h4.81v.88a.34.34,0,0,0,.56.25l.56-.49.57.49a.34.34,0,0,0,.56-.25V12.8a3,3,0,0,1,.76,2.25c0,1.43-.61,2.43-1.17,2.43Z"/></g></g></svg>