<svg xmlns="http://www.w3.org/2000/svg" viewBox="0 0 21.74 19.75"><defs><style>.cls-1{fill:#fff;}</style></defs><title>자산 6</title><g id="레이어_2" data-name="레이어 2"><g id="레이어_1-2" data-name="레이어 1"><path class="cls-1" d="M7.13,7.84h3.1a.4.4,0,1,0,0-.79H7.13a.4.4,0,1,0,0,.79Z"/><path class="cls-1" d="M4.76,10.5H2.84a.38.38,0,0,0-.39.39v1.92a.39.39,0,0,0,.39.4H4.76a.39.39,0,0,0,.39-.4V10.89a.38.38,0,0,0-.39-.39Zm-.4,1.92H3.24V11.29H4.36Z"/><path class="cls-1" d="M7.13,12.25h3.1a.4.4,0,1,0,0-.79H7.13a.4.4,0,1,0,0,.79Z"/><path class="cls-1" d="M4.76,14.73H2.84a.39.39,0,0,0-.39.4v1.92a.39.39,0,0,0,.39.39H4.76a.39.39,0,0,0,.39-.39V15.13a.39.39,0,0,0-.39-.4Zm-.4,1.92H3.24V15.52H4.36Z"/><path class="cls-1" d="M21.63,1.67A2,2,0,0,0,18,1.45L17.15,3.2l-.93,1.93V3.72a.4.4,0,0,0-.12-.27L12.77.12A.36.36,0,0,0,12.49,0H.39A.4.4,0,0,0,0,.4v19a.39.39,0,0,0,.39.39H15.82a.39.39,0,0,0,.4-.39V14.13l5.32-11a1.91,1.91,0,0,0,.09-1.5ZM15.51,13.76l-2.06,1.55,0-2.58L17.69,3.9l2.12,1ZM12.89,1.35l2,2h-2ZM.79,19V.79H12.1V3.72a.39.39,0,0,0,.39.4h2.94V6.75l-2.79,5.72a.58.58,0,0,0,0,.18l.07,3H7.13a.4.4,0,1,0,0,.79h5.94a.41.41,0,0,0,.24-.08l2.12-1.59V19Zm20-16.13-.67,1.39L18,3.19l.67-1.39a1.18,1.18,0,1,1,2.12,1Z"/><path class="cls-1" d="M5.08,6.73a.39.39,0,0,0-.55.07l-.77,1L3.4,7.44A.4.4,0,0,0,2.83,8l.69.69a.39.39,0,0,0,.28.11h0a.36.36,0,0,0,.28-.15l1-1.37a.39.39,0,0,0-.08-.55Z"/></g></g></svg>