<svg xmlns="http://www.w3.org/2000/svg" viewBox="0 0 46.71 43.95"><defs><style>.cls-1{fill:#5da9c2;}.cls-2{fill:#23628f;}.cls-3{fill:#47c4ee;}.cls-4{fill:#bf9200;}.cls-5{fill:#ffc200;}.cls-6{fill:#008f2d;}.cls-7{fill:#00be3c;}.cls-8{fill:#48a3ff;}.cls-9{fill:#367abf;}</style></defs><title>자산 3</title><g id="레이어_2" data-name="레이어 2"><g id="레이어_1-2" data-name="레이어 1"><path class="cls-1" d="M13.83,23.94V43a1,1,0,0,1-1,1H1a1,1,0,0,1-1-1v-19a1,1,0,0,1,1-1H12.85a1,1,0,0,1,1,1Z"/><path class="cls-2" d="M42.07,19.25v8.89H40.59v-7.9a.49.49,0,0,0-.49-.49h-16v8.88H22.67V19.75H7a.49.49,0,0,0-.49.49v7.9H5.05V19.25a1,1,0,0,1,1-1H22.67V4.94h1.48V18.27H41.08a1,1,0,0,1,1,1Z"/><path class="cls-3" d="M13,23h-11V34.66H14V23.52c0-.31-.45-.57-1-.57Z"/><path class="cls-1" d="M30.33,23.94V43a1,1,0,0,1-1,1H17.48a1,1,0,0,1-1-1v-19a1,1,0,0,1,1-1H29.34a1,1,0,0,1,1,1Z"/><path class="cls-1" d="M45.73,23H33.87a1,1,0,0,0-1,1V43a1,1,0,0,0,1,1H45.73a1,1,0,0,0,1-1v-19a1,1,0,0,0-1-1Z"/><path class="cls-3" d="M16.9,6.52A6.52,6.52,0,1,1,23.41,13,6.51,6.51,0,0,1,16.9,6.52Z"/><path class="cls-3" d="M29.34,23h-11V44h11a1,1,0,0,0,1-1v-19a1,1,0,0,0-1-1Z"/><path class="cls-3" d="M45.73,23h-11V44h11a1,1,0,0,0,1-1v-19a1,1,0,0,0-1-1Z"/><path class="cls-1" d="M22.57,13a6.52,6.52,0,0,1,0-12.92,7.76,7.76,0,0,0-3.21,6.46A7.78,7.78,0,0,0,22.57,13Z"/><path class="cls-2" d="M29,5V6.07a.19.19,0,0,1-.19.2H20.07a.2.2,0,0,1-.2-.2V5a.2.2,0,0,1,.2-.2h8.69A.19.19,0,0,1,29,5Zm-3,3.9a.2.2,0,0,0,.2-.2V7.6a.2.2,0,0,0-.2-.2h-3.1a.2.2,0,0,0-.2.2V8.69a.2.2,0,0,0,.2.2ZM11.32,26.35l-.77-.77a.19.19,0,0,0-.28,0L7.73,28.13,5.18,25.58a.19.19,0,0,0-.28,0l-.77.77a.19.19,0,0,0,0,.28l2.55,2.54L4.13,31.72a.19.19,0,0,0,0,.28l.77.77a.19.19,0,0,0,.28,0l2.55-2.55,2.54,2.55a.19.19,0,0,0,.28,0l.77-.77a.19.19,0,0,0,0-.28L8.77,29.17l2.55-2.54a.19.19,0,0,0,0-.28Zm16.69,0-.77-.77a.19.19,0,0,0-.28,0l-2.55,2.55-2.55-2.55a.19.19,0,0,0-.28,0l-.76.77a.19.19,0,0,0,0,.28l2.55,2.54-2.55,2.55a.19.19,0,0,0,0,.28l.76.77a.19.19,0,0,0,.28,0l2.55-2.55L27,32.77a.19.19,0,0,0,.28,0L28,32a.21.21,0,0,0,0-.28l-2.55-2.55L28,26.63a.21.21,0,0,0,0-.28Zm13.83,2.82,2.55-2.54a.19.19,0,0,0,0-.28l-.77-.77a.19.19,0,0,0-.28,0L40.8,28.13l-2.55-2.55a.19.19,0,0,0-.28,0l-.77.77a.19.19,0,0,0,0,.28l2.55,2.54L37.2,31.72a.19.19,0,0,0,0,.28l.77.77a.19.19,0,0,0,.28,0l2.55-2.55,2.54,2.55a.19.19,0,0,0,.28,0l.77-.77a.19.19,0,0,0,0-.28Z"/><path class="cls-4" d="M46.71,34.66V43a1,1,0,0,1-1,1H33.87a1,1,0,0,1-1-1v-8.3Z"/><path class="cls-5" d="M46.71,34.66V43a1,1,0,0,1-1,1h-11V34.66Z"/><path class="cls-4" d="M45.34,37v1.09a.2.2,0,0,1-.2.2H36.45a.2.2,0,0,1-.2-.2V37a.2.2,0,0,1,.2-.19h8.69a.2.2,0,0,1,.2.19Zm-3,2.42H39.24a.19.19,0,0,0-.19.2v1.09a.18.18,0,0,0,.19.19h3.11a.18.18,0,0,0,.19-.19V39.59a.19.19,0,0,0-.19-.2Z"/><path class="cls-6" d="M16.49,34.66H30.33V43a1,1,0,0,1-1,1H17.48a1,1,0,0,1-1-1Z"/><path class="cls-7" d="M18.32,34.66h12V43a1,1,0,0,1-1,1h-11Z"/><path class="cls-6" d="M26.16,39.59v1.09a.19.19,0,0,1-.2.19h-3.1a.19.19,0,0,1-.2-.19V39.59a.2.2,0,0,1,.2-.2H26a.2.2,0,0,1,.2.2Zm2.6-2.81H20.07a.2.2,0,0,0-.2.19v1.09a.2.2,0,0,0,.2.2h8.69a.19.19,0,0,0,.19-.2V37a.19.19,0,0,0-.19-.19Z"/><path class="cls-8" d="M1.93,34.66H0V43a1,1,0,0,0,1,1H13a1,1,0,0,0,1-1v-8.3Z"/><path class="cls-9" d="M0,34.66v8.42A.87.87,0,0,0,.87,44H1.93V34.66Z"/><path class="cls-9" d="M9.78,39.59v1.09a.19.19,0,0,1-.2.19H6.48a.19.19,0,0,1-.2-.19V39.59a.2.2,0,0,1,.2-.2h3.1a.2.2,0,0,1,.2.2Zm2.59-2.81H3.68a.2.2,0,0,0-.19.19v1.09a.2.2,0,0,0,.19.2h8.69a.2.2,0,0,0,.2-.2V37a.2.2,0,0,0-.2-.19Z"/></g></g></svg>