<svg xmlns="http://www.w3.org/2000/svg" xmlns:xlink="http://www.w3.org/1999/xlink" viewBox="0 0 190.5 188.96"><defs><style>.cls-1{isolation:isolate;}.cls-2{opacity:0.2;fill:url(#무제_그라디언트_1343);}.cls-3{fill:url(#무제_그라디언트_1343-2);}.cls-4,.cls-90{opacity:0.3;}.cls-5{fill:#a9e8f4;}.cls-10,.cls-11,.cls-12,.cls-13,.cls-14,.cls-15,.cls-16,.cls-17,.cls-6,.cls-63,.cls-7,.cls-8,.cls-9,.cls-90{mix-blend-mode:hard-light;}.cls-6{fill:url(#무제_그라디언트_1179);}.cls-7{fill:url(#무제_그라디언트_1262);}.cls-8{fill:url(#무제_그라디언트_1261);}.cls-9{fill:url(#무제_그라디언트_1260);}.cls-10{fill:url(#무제_그라디언트_1259);}.cls-11{fill:url(#무제_그라디언트_1258);}.cls-12{fill:url(#무제_그라디언트_1257);}.cls-13{fill:url(#무제_그라디언트_1256);}.cls-14{fill:url(#무제_그라디언트_1255);}.cls-15{fill:url(#무제_그라디언트_1254);}.cls-16{fill:url(#무제_그라디언트_1253);}.cls-17{fill:url(#무제_그라디언트_1115);}.cls-18{fill:url(#linear-gradient);}.cls-19{fill:url(#linear-gradient-2);}.cls-20{fill:url(#linear-gradient-3);}.cls-21{fill:url(#무제_그라디언트_598);}.cls-22,.cls-34{opacity:0;}.cls-22{fill:url(#무제_그라디언트_641);}.cls-23{opacity:0.07;fill:url(#무제_그라디언트_902);}.cls-24{opacity:0.15;fill:url(#무제_그라디언트_901);}.cls-25{opacity:0.22;fill:url(#무제_그라디언트_900);}.cls-26{opacity:0.29;fill:url(#무제_그라디언트_899);}.cls-27{opacity:0.36;fill:url(#무제_그라디언트_898);}.cls-28{opacity:0.44;fill:url(#무제_그라디언트_897);}.cls-29,.cls-51{opacity:0.51;}.cls-29{fill:url(#무제_그라디언트_663);}.cls-30{opacity:0.58;fill:url(#무제_그라디언트_896);}.cls-31{opacity:0.65;fill:url(#무제_그라디언트_895);}.cls-32{opacity:0.73;fill:url(#무제_그라디언트_894);}.cls-33{opacity:0.8;fill:url(#무제_그라디언트_659);}.cls-34,.cls-35,.cls-36,.cls-37,.cls-38,.cls-39,.cls-40,.cls-41,.cls-42,.cls-43,.cls-44,.cls-45{mix-blend-mode:multiply;}.cls-34{fill:url(#무제_그라디언트_704);}.cls-35{opacity:0.05;fill:url(#무제_그라디언트_893);}.cls-36{opacity:0.09;fill:url(#무제_그라디언트_892);}.cls-37{opacity:0.14;fill:url(#무제_그라디언트_891);}.cls-38{opacity:0.18;fill:url(#무제_그라디언트_890);}.cls-39{opacity:0.23;fill:url(#무제_그라디언트_889);}.cls-40{opacity:0.27;fill:url(#무제_그라디언트_888);}.cls-41{opacity:0.32;fill:url(#무제_그라디언트_887);}.cls-42{opacity:0.36;fill:url(#무제_그라디언트_886);}.cls-43{opacity:0.41;fill:url(#무제_그라디언트_885);}.cls-44{opacity:0.45;fill:url(#무제_그라디언트_884);}.cls-45,.cls-91{opacity:0.5;}.cls-45{fill:url(#linear-gradient-4);}.cls-46{fill:url(#무제_그라디언트_543);}.cls-47{fill:url(#무제_그라디언트_811);}.cls-48{fill:#2af6ff;}.cls-49{fill:url(#무제_그라디언트_773);}.cls-50{fill:url(#무제_그라디언트_598-2);}.cls-51{fill:url(#무제_그라디언트_663-2);}.cls-52,.cls-53,.cls-58,.cls-59,.cls-60,.cls-61,.cls-66,.cls-67,.cls-69,.cls-70,.cls-71,.cls-72,.cls-73,.cls-74,.cls-76,.cls-77,.cls-78,.cls-79,.cls-83,.cls-84,.cls-85,.cls-87,.cls-88{mix-blend-mode:color-dodge;}.cls-52{fill:url(#무제_그라디언트_733);}.cls-53{fill:url(#무제_그라디언트_764);}.cls-54{fill:url(#무제_그라디언트_598-3);}.cls-55{fill:url(#무제_그라디언트_872);}.cls-56{fill:url(#무제_그라디언트_598-4);}.cls-57{fill:url(#무제_그라디언트_543-2);}.cls-58{fill:url(#무제_그라디언트_883);}.cls-59{fill:url(#New_Gradient_Swatch_copy_6);}.cls-60{fill:url(#New_Gradient_Swatch_copy_6-2);}.cls-61{fill:url(#radial-gradient);}.cls-62{fill:url(#linear-gradient-5);}.cls-63{fill:url(#무제_그라디언트_1195);}.cls-64{mix-blend-mode:screen;}.cls-65{fill:#0045ef;}.cls-66{fill:url(#무제_그라디언트_1237);}.cls-67{fill:url(#무제_그라디언트_1237-2);}.cls-68{fill:url(#무제_그라디언트_1237-3);}.cls-69{fill:url(#무제_그라디언트_1237-4);}.cls-70{fill:url(#무제_그라디언트_1237-5);}.cls-71{fill:url(#무제_그라디언트_1237-6);}.cls-72{fill:url(#무제_그라디언트_1237-7);}.cls-73{fill:url(#무제_그라디언트_1237-8);}.cls-74{fill:url(#무제_그라디언트_1237-9);}.cls-75{fill:url(#무제_그라디언트_1237-10);}.cls-76{fill:url(#무제_그라디언트_1237-11);}.cls-77{fill:url(#무제_그라디언트_1237-12);}.cls-78{fill:url(#무제_그라디언트_1237-13);}.cls-79{fill:url(#무제_그라디언트_1237-14);}.cls-80{fill:url(#무제_그라디언트_1237-15);}.cls-81{fill:url(#무제_그라디언트_1237-16);}.cls-82{fill:url(#무제_그라디언트_1237-17);}.cls-83{fill:url(#무제_그라디언트_1237-18);}.cls-84{fill:url(#무제_그라디언트_1237-19);}.cls-85{fill:url(#무제_그라디언트_1237-20);}.cls-86{fill:url(#무제_그라디언트_1237-21);}.cls-87{fill:url(#무제_그라디언트_1237-22);}.cls-88{fill:url(#무제_그라디언트_1237-23);}.cls-89{fill:url(#무제_그라디언트_1237-24);}.cls-90{fill:url(#무제_그라디언트_1252);}.cls-92{fill:#c7e8ff;}</style><radialGradient id="무제_그라디언트_1343" cx="83.22" cy="158.82" r="42.62" gradientUnits="userSpaceOnUse"><stop offset="0" stop-color="#d6deec"/><stop offset="0.1" stop-color="#b0cef0" stop-opacity="0.8"/><stop offset="0.22" stop-color="#88bef4" stop-opacity="0.59"/><stop offset="0.35" stop-color="#66b0f7" stop-opacity="0.41"/><stop offset="0.48" stop-color="#4aa4fa" stop-opacity="0.26"/><stop offset="0.6" stop-color="#349bfc" stop-opacity="0.15"/><stop offset="0.73" stop-color="#2495fe" stop-opacity="0.06"/><stop offset="0.86" stop-color="#1b91ff" stop-opacity="0.02"/><stop offset="1" stop-color="#1890ff" stop-opacity="0"/></radialGradient><radialGradient id="무제_그라디언트_1343-2" cx="83.26" cy="164.88" r="12.09" gradientTransform="matrix(0.05, 1.78, -1.05, 0.09, 253.08, -4.63)" xlink:href="#무제_그라디언트_1343"/><linearGradient id="무제_그라디언트_1179" x1="2966.22" y1="119.34" x2="2966.22" y2="144.81" gradientTransform="matrix(-1, 0, 0, 1, 3050.01, 0)" gradientUnits="userSpaceOnUse"><stop offset="0" stop-color="#113a39"/><stop offset="0.22" stop-color="#0a6d8a" stop-opacity="0.59"/><stop offset="0.47" stop-color="#0497cb" stop-opacity="0.26"/><stop offset="0.73" stop-color="#01b0f2" stop-opacity="0.07"/><stop offset="1" stop-color="#00b8ff" stop-opacity="0"/></linearGradient><linearGradient id="무제_그라디언트_1262" x1="2966.22" y1="119.37" x2="2966.22" y2="144.44" gradientTransform="matrix(-1, 0, 0, 1, 3050.01, 0)" gradientUnits="userSpaceOnUse"><stop offset="0" stop-color="#164a48"/><stop offset="0.04" stop-color="#145256" stop-opacity="0.92"/><stop offset="0.28" stop-color="#0b7aa0" stop-opacity="0.53"/><stop offset="0.53" stop-color="#0597d5" stop-opacity="0.25"/><stop offset="0.77" stop-color="#01a8f4" stop-opacity="0.08"/><stop offset="1" stop-color="#00aeff" stop-opacity="0.02"/></linearGradient><linearGradient id="무제_그라디언트_1261" x1="2966.22" y1="119.4" x2="2966.22" y2="144.07" gradientTransform="matrix(-1, 0, 0, 1, 3050.01, 0)" gradientUnits="userSpaceOnUse"><stop offset="0" stop-color="#1a5a58"/><stop offset="0.09" stop-color="#166673" stop-opacity="0.84"/><stop offset="0.33" stop-color="#0c82b0" stop-opacity="0.49"/><stop offset="0.57" stop-color="#0595dc" stop-opacity="0.24"/><stop offset="0.79" stop-color="#01a1f6" stop-opacity="0.09"/><stop offset="1" stop-color="#00a5ff" stop-opacity="0.04"/></linearGradient><linearGradient id="무제_그라디언트_1260" x1="2966.22" y1="119.43" x2="2966.22" y2="143.69" gradientTransform="matrix(-1, 0, 0, 1, 3050.01, 0)" gradientUnits="userSpaceOnUse"><stop offset="0" stop-color="#1f6967"/><stop offset="0.13" stop-color="#187488" stop-opacity="0.8"/><stop offset="0.37" stop-color="#0e85bb" stop-opacity="0.47"/><stop offset="0.6" stop-color="#0691e1" stop-opacity="0.24"/><stop offset="0.82" stop-color="#0298f7" stop-opacity="0.1"/><stop offset="1" stop-color="#009bff" stop-opacity="0.05"/></linearGradient><linearGradient id="무제_그라디언트_1259" x1="2966.22" y1="119.46" x2="2966.22" y2="143.32" gradientTransform="matrix(-1, 0, 0, 1, 3050.01, 0)" gradientUnits="userSpaceOnUse"><stop offset="0" stop-color="#237976"/><stop offset="0.16" stop-color="#1a7f99" stop-opacity="0.76"/><stop offset="0.4" stop-color="#0f87c5" stop-opacity="0.47"/><stop offset="0.63" stop-color="#078de5" stop-opacity="0.25"/><stop offset="0.84" stop-color="#0291f8" stop-opacity="0.12"/><stop offset="1" stop-color="#0092ff" stop-opacity="0.07"/></linearGradient><linearGradient id="무제_그라디언트_1258" x1="2966.22" y1="119.5" x2="2966.22" y2="142.95" gradientTransform="matrix(-1, 0, 0, 1, 3050.01, 0)" gradientUnits="userSpaceOnUse"><stop offset="0" stop-color="#288985"/><stop offset="0.19" stop-color="#1d89a7" stop-opacity="0.75"/><stop offset="0.43" stop-color="#1088cd" stop-opacity="0.47"/><stop offset="0.66" stop-color="#0788e8" stop-opacity="0.26"/><stop offset="0.85" stop-color="#0288f9" stop-opacity="0.14"/><stop offset="1" stop-color="#08f" stop-opacity="0.09"/></linearGradient><linearGradient id="무제_그라디언트_1257" x1="2966.22" y1="119.53" x2="2966.22" y2="142.58" gradientTransform="matrix(-1, 0, 0, 1, 3050.01, 0)" gradientUnits="userSpaceOnUse"><stop offset="0" stop-color="#2c9995"/><stop offset="0.2" stop-color="#2092b3" stop-opacity="0.75"/><stop offset="0.45" stop-color="#128ad4" stop-opacity="0.47"/><stop offset="0.68" stop-color="#0884eb" stop-opacity="0.27"/><stop offset="0.87" stop-color="#0280fa" stop-opacity="0.15"/><stop offset="1" stop-color="#007fff" stop-opacity="0.11"/></linearGradient><linearGradient id="무제_그라디언트_1256" x1="2966.22" y1="119.56" x2="2966.22" y2="142.2" gradientTransform="matrix(-1, 0, 0, 1, 3050.01, 0)" gradientUnits="userSpaceOnUse"><stop offset="0" stop-color="#31a9a4"/><stop offset="0.2" stop-color="#249bbd" stop-opacity="0.76"/><stop offset="0.46" stop-color="#148bd9" stop-opacity="0.49"/><stop offset="0.69" stop-color="#097fee" stop-opacity="0.29"/><stop offset="0.88" stop-color="#0278fa" stop-opacity="0.17"/><stop offset="1" stop-color="#0075ff" stop-opacity="0.13"/></linearGradient><linearGradient id="무제_그라디언트_1255" x1="2966.22" y1="119.59" x2="2966.22" y2="141.83" gradientTransform="matrix(-1, 0, 0, 1, 3050.01, 0)" gradientUnits="userSpaceOnUse"><stop offset="0" stop-color="#35b9b3"/><stop offset="0.19" stop-color="#28a6c6" stop-opacity="0.79"/><stop offset="0.46" stop-color="#178dde" stop-opacity="0.52"/><stop offset="0.7" stop-color="#0a7bf0" stop-opacity="0.31"/><stop offset="0.89" stop-color="#0370fb" stop-opacity="0.19"/><stop offset="1" stop-color="#006cff" stop-opacity="0.15"/></linearGradient><linearGradient id="무제_그라디언트_1254" x1="2966.22" y1="119.62" x2="2966.22" y2="141.46" gradientTransform="matrix(-1, 0, 0, 1, 3050.01, 0)" gradientUnits="userSpaceOnUse"><stop offset="0" stop-color="#3ac8c2"/><stop offset="0.15" stop-color="#2fb5ce" stop-opacity="0.84"/><stop offset="0.45" stop-color="#1b92e3" stop-opacity="0.55"/><stop offset="0.7" stop-color="#0c78f2" stop-opacity="0.34"/><stop offset="0.89" stop-color="#0368fb" stop-opacity="0.21"/><stop offset="1" stop-color="#0062ff" stop-opacity="0.16"/></linearGradient><linearGradient id="무제_그라디언트_1253" x1="2966.22" y1="119.66" x2="2966.22" y2="141.09" gradientTransform="matrix(-1, 0, 0, 1, 3050.01, 0)" gradientUnits="userSpaceOnUse"><stop offset="0" stop-color="#3ed8d2"/><stop offset="0.08" stop-color="#38cbd7" stop-opacity="0.92"/><stop offset="0.41" stop-color="#209be8" stop-opacity="0.6"/><stop offset="0.69" stop-color="#0f77f4" stop-opacity="0.38"/><stop offset="0.89" stop-color="#0461fc" stop-opacity="0.24"/><stop offset="1" stop-color="#0059ff" stop-opacity="0.18"/></linearGradient><linearGradient id="무제_그라디언트_1115" x1="2966.22" y1="119.69" x2="2966.22" y2="140.72" gradientTransform="matrix(-1, 0, 0, 1, 3050.01, 0)" gradientUnits="userSpaceOnUse"><stop offset="0" stop-color="#43e8e1"/><stop offset="0.35" stop-color="#28abed" stop-opacity="0.68"/><stop offset="0.66" stop-color="#1379f7" stop-opacity="0.42"/><stop offset="0.89" stop-color="#055bfd" stop-opacity="0.26"/><stop offset="1" stop-color="#004fff" stop-opacity="0.2"/></linearGradient><linearGradient id="linear-gradient" x1="2960.43" y1="114.99" x2="2972" y2="114.99" gradientTransform="matrix(-1, 0, 0, 1, 3050.01, 0)" gradientUnits="userSpaceOnUse"><stop offset="0.02" stop-color="#45108a"/><stop offset="0.29" stop-color="#3d065f"/><stop offset="1" stop-color="#12054e"/><stop offset="1" stop-color="#10054d"/></linearGradient><linearGradient id="linear-gradient-2" x1="2932.63" y1="77.28" x2="2953.78" y2="79.88" gradientTransform="matrix(-1, 0, 0, 1, 3050.01, 0)" gradientUnits="userSpaceOnUse"><stop offset="0.01" stop-color="#c1a1d5"/><stop offset="0.05" stop-color="#c8abda"/><stop offset="0.11" stop-color="#dac6e6"/><stop offset="0.2" stop-color="#f7f2f9"/><stop offset="0.22" stop-color="#fff"/><stop offset="0.25" stop-color="#f9f5fb"/><stop offset="0.3" stop-color="#e9dbf2"/><stop offset="0.36" stop-color="#d1b4e3"/><stop offset="0.43" stop-color="#b395d6"/><stop offset="0.49" stop-color="#9c7dcb"/><stop offset="0.56" stop-color="#8e6ec5"/><stop offset="0.61" stop-color="#8969c3"/><stop offset="0.76" stop-color="#9471c6"/><stop offset="1" stop-color="#b086cc"/></linearGradient><linearGradient id="linear-gradient-3" x1="2961.6" y1="109.76" x2="2970.91" y2="115.13" xlink:href="#linear-gradient"/><linearGradient id="무제_그라디언트_598" x1="2939.11" y1="87.71" x2="2993.24" y2="79.51" gradientTransform="matrix(-1, 0, 0, 1, 3050.01, 0)" gradientUnits="userSpaceOnUse"><stop offset="0.01" stop-color="#b1bdd5"/><stop offset="0.08" stop-color="#bbc7df"/><stop offset="0.2" stop-color="#d6e0f9"/><stop offset="0.23" stop-color="#ccd7f0"/><stop offset="0.28" stop-color="#b2bed9"/><stop offset="0.35" stop-color="#8897b4"/><stop offset="0.36" stop-color="#8291ae"/><stop offset="0.39" stop-color="#7e8eaa"/><stop offset="0.51" stop-color="#6f829c"/><stop offset="0.61" stop-color="#6a7e97"/><stop offset="0.7" stop-color="#7589a1"/><stop offset="0.85" stop-color="#91a6bb"/><stop offset="1" stop-color="#b5cadb"/></linearGradient><linearGradient id="무제_그라디언트_641" x1="2945.93" y1="55.68" x2="2986.63" y2="79.17" gradientTransform="matrix(-1, 0, 0, 1, 3050.01, 0)" gradientUnits="userSpaceOnUse"><stop offset="0" stop-color="#fff"/><stop offset="0.28" stop-color="#dde1e9"/><stop offset="0.88" stop-color="#8895b0"/><stop offset="1" stop-color="#7786a5"/></linearGradient><linearGradient id="무제_그라디언트_902" x1="2946.17" y1="55.72" x2="2986.38" y2="78.93" gradientTransform="matrix(-1, 0, 0, 1, 3050.01, 0)" gradientUnits="userSpaceOnUse"><stop offset="0" stop-color="#fff"/><stop offset="0.27" stop-color="#dde1e9"/><stop offset="0.87" stop-color="#8896b0"/><stop offset="1" stop-color="#7484a3"/></linearGradient><linearGradient id="무제_그라디언트_901" x1="2946.4" y1="55.76" x2="2986.12" y2="78.69" gradientTransform="matrix(-1, 0, 0, 1, 3050.01, 0)" gradientUnits="userSpaceOnUse"><stop offset="0" stop-color="#fff"/><stop offset="0.27" stop-color="#dde1e8"/><stop offset="0.85" stop-color="#8895af"/><stop offset="1" stop-color="#7281a0"/></linearGradient><linearGradient id="무제_그라디언트_900" x1="2946.64" y1="55.8" x2="2985.87" y2="78.44" gradientTransform="matrix(-1, 0, 0, 1, 3050.01, 0)" gradientUnits="userSpaceOnUse"><stop offset="0" stop-color="#fff"/><stop offset="0.26" stop-color="#dde1e8"/><stop offset="0.84" stop-color="#8895af"/><stop offset="1" stop-color="#6f7f9e"/></linearGradient><linearGradient id="무제_그라디언트_899" x1="2946.87" y1="55.84" x2="2985.61" y2="78.2" gradientTransform="matrix(-1, 0, 0, 1, 3050.01, 0)" gradientUnits="userSpaceOnUse"><stop offset="0" stop-color="#fff"/><stop offset="0.26" stop-color="#dde1e8"/><stop offset="0.83" stop-color="#8894ae"/><stop offset="1" stop-color="#6d7c9c"/></linearGradient><linearGradient id="무제_그라디언트_898" x1="2947.11" y1="55.88" x2="2985.36" y2="77.96" gradientTransform="matrix(-1, 0, 0, 1, 3050.01, 0)" gradientUnits="userSpaceOnUse"><stop offset="0" stop-color="#fff"/><stop offset="0.25" stop-color="#dde1e8"/><stop offset="0.81" stop-color="#8895ae"/><stop offset="1" stop-color="#6a7a9a"/></linearGradient><linearGradient id="무제_그라디언트_897" x1="2947.34" y1="55.92" x2="2985.1" y2="77.72" gradientTransform="matrix(-1, 0, 0, 1, 3050.01, 0)" gradientUnits="userSpaceOnUse"><stop offset="0" stop-color="#fff"/><stop offset="0.25" stop-color="#dde1e8"/><stop offset="0.8" stop-color="#8894ad"/><stop offset="1" stop-color="#687797"/></linearGradient><linearGradient id="무제_그라디언트_663" x1="2947.58" y1="55.96" x2="2984.85" y2="77.47" gradientTransform="matrix(-1, 0, 0, 1, 3050.01, 0)" gradientUnits="userSpaceOnUse"><stop offset="0" stop-color="#fff"/><stop offset="0.25" stop-color="#dde1e8"/><stop offset="0.79" stop-color="#8894ad"/><stop offset="1" stop-color="#657595"/></linearGradient><linearGradient id="무제_그라디언트_896" x1="2947.82" y1="56" x2="2984.59" y2="77.23" gradientTransform="matrix(-1, 0, 0, 1, 3050.01, 0)" gradientUnits="userSpaceOnUse"><stop offset="0" stop-color="#fff"/><stop offset="0.24" stop-color="#dde0e8"/><stop offset="0.78" stop-color="#8893ad"/><stop offset="1" stop-color="#637293"/></linearGradient><linearGradient id="무제_그라디언트_895" x1="2948.05" y1="56.04" x2="2984.34" y2="76.99" gradientTransform="matrix(-1, 0, 0, 1, 3050.01, 0)" gradientUnits="userSpaceOnUse"><stop offset="0" stop-color="#fff"/><stop offset="0.24" stop-color="#dde1e8"/><stop offset="0.77" stop-color="#8894ad"/><stop offset="1" stop-color="#607091"/></linearGradient><linearGradient id="무제_그라디언트_894" x1="2948.29" y1="56.08" x2="2984.08" y2="76.74" gradientTransform="matrix(-1, 0, 0, 1, 3050.01, 0)" gradientUnits="userSpaceOnUse"><stop offset="0" stop-color="#fff"/><stop offset="0.24" stop-color="#dde0e7"/><stop offset="0.76" stop-color="#8893ac"/><stop offset="1" stop-color="#5e6d8e"/></linearGradient><linearGradient id="무제_그라디언트_659" x1="2948.52" y1="56.12" x2="2983.83" y2="76.5" gradientTransform="matrix(-1, 0, 0, 1, 3050.01, 0)" gradientUnits="userSpaceOnUse"><stop offset="0" stop-color="#fff"/><stop offset="0.23" stop-color="#dde1e7"/><stop offset="0.74" stop-color="#8894ac"/><stop offset="1" stop-color="#5b6b8c"/></linearGradient><linearGradient id="무제_그라디언트_704" x1="2951.55" y1="53.25" x2="2986.84" y2="73.63" gradientTransform="matrix(-1, 0, 0, 1, 3050.01, 0)" gradientUnits="userSpaceOnUse"><stop offset="0.19" stop-color="#253477"/><stop offset="0.93" stop-color="#4f607e"/></linearGradient><linearGradient id="무제_그라디언트_893" x1="2951.95" y1="53.55" x2="2986.34" y2="73.41" gradientTransform="matrix(-1, 0, 0, 1, 3050.01, 0)" gradientUnits="userSpaceOnUse"><stop offset="0.19" stop-color="#273075"/><stop offset="0.93" stop-color="#4d587b"/></linearGradient><linearGradient id="무제_그라디언트_892" x1="2952.35" y1="53.85" x2="2985.83" y2="73.18" gradientTransform="matrix(-1, 0, 0, 1, 3050.01, 0)" gradientUnits="userSpaceOnUse"><stop offset="0.19" stop-color="#292c73"/><stop offset="0.93" stop-color="#4c5078"/></linearGradient><linearGradient id="무제_그라디언트_891" x1="2952.76" y1="54.15" x2="2985.33" y2="72.96" gradientTransform="matrix(-1, 0, 0, 1, 3050.01, 0)" gradientUnits="userSpaceOnUse"><stop offset="0.19" stop-color="#2c2770"/><stop offset="0.93" stop-color="#4a4776"/></linearGradient><linearGradient id="무제_그라디언트_890" x1="2953.16" y1="54.45" x2="2984.83" y2="72.73" gradientTransform="matrix(-1, 0, 0, 1, 3050.01, 0)" gradientUnits="userSpaceOnUse"><stop offset="0.19" stop-color="#2e236e"/><stop offset="0.93" stop-color="#483f73"/></linearGradient><linearGradient id="무제_그라디언트_889" x1="2953.57" y1="54.75" x2="2984.32" y2="72.51" gradientTransform="matrix(-1, 0, 0, 1, 3050.01, 0)" gradientUnits="userSpaceOnUse"><stop offset="0.19" stop-color="#301f6c"/><stop offset="0.93" stop-color="#473770"/></linearGradient><linearGradient id="무제_그라디언트_888" x1="2953.97" y1="55.05" x2="2983.82" y2="72.28" gradientTransform="matrix(-1, 0, 0, 1, 3050.01, 0)" gradientUnits="userSpaceOnUse"><stop offset="0.19" stop-color="#321b6a"/><stop offset="0.93" stop-color="#452f6d"/></linearGradient><linearGradient id="무제_그라디언트_887" x1="2954.37" y1="55.35" x2="2983.31" y2="72.06" gradientTransform="matrix(-1, 0, 0, 1, 3050.01, 0)" gradientUnits="userSpaceOnUse"><stop offset="0.19" stop-color="#341768"/><stop offset="0.93" stop-color="#44276a"/></linearGradient><linearGradient id="무제_그라디언트_886" x1="2954.78" y1="55.65" x2="2982.81" y2="71.84" gradientTransform="matrix(-1, 0, 0, 1, 3050.01, 0)" gradientUnits="userSpaceOnUse"><stop offset="0.19" stop-color="#361366"/><stop offset="0.93" stop-color="#421f67"/></linearGradient><linearGradient id="무제_그라디언트_885" x1="2955.18" y1="55.95" x2="2982.31" y2="71.61" gradientTransform="matrix(-1, 0, 0, 1, 3050.01, 0)" gradientUnits="userSpaceOnUse"><stop offset="0.19" stop-color="#390e63"/><stop offset="0.93" stop-color="#401665"/></linearGradient><linearGradient id="무제_그라디언트_884" x1="2955.59" y1="56.25" x2="2981.8" y2="71.39" gradientTransform="matrix(-1, 0, 0, 1, 3050.01, 0)" gradientUnits="userSpaceOnUse"><stop offset="0.19" stop-color="#3b0a61"/><stop offset="0.93" stop-color="#3f0e62"/></linearGradient><linearGradient id="linear-gradient-4" x1="2955.99" y1="56.55" x2="2981.3" y2="71.16" gradientTransform="matrix(-1, 0, 0, 1, 3050.01, 0)" gradientUnits="userSpaceOnUse"><stop offset="0.19" stop-color="#3d065f"/><stop offset="0.93" stop-color="#3d065f"/></linearGradient><radialGradient id="무제_그라디언트_543" cx="2958.39" cy="34.15" r="43.47" gradientTransform="matrix(-0.99, -0.16, -0.16, 0.99, 3018.17, 478.41)" gradientUnits="userSpaceOnUse"><stop offset="0.01" stop-color="#d8e2fb"/><stop offset="0.07" stop-color="#c2cde8"/><stop offset="0.2" stop-color="#99a6c3"/><stop offset="0.3" stop-color="#7f8eac"/><stop offset="0.36" stop-color="#7685a4"/><stop offset="0.52" stop-color="#677694"/><stop offset="0.72" stop-color="#4e5f7b"/><stop offset="0.77" stop-color="#51637e"/><stop offset="0.81" stop-color="#5c6e88"/><stop offset="0.86" stop-color="#6e8199"/><stop offset="0.9" stop-color="#879bb1"/><stop offset="0.91" stop-color="#8ca1b6"/><stop offset="0.94" stop-color="#8fa4b8"/><stop offset="0.96" stop-color="#97adc0"/><stop offset="0.97" stop-color="#a6bbce"/><stop offset="0.99" stop-color="#bad1e1"/><stop offset="1" stop-color="#d1e8f6"/></radialGradient><linearGradient id="무제_그라디언트_811" x1="2936.27" y1="43.94" x2="2968.7" y2="43.94" gradientTransform="matrix(-1, 0, 0, 1, 3050.01, 0)" gradientUnits="userSpaceOnUse"><stop offset="0.02" stop-color="#0c108a"/><stop offset="0.29" stop-color="#00185f"/><stop offset="1" stop-color="#12054e"/><stop offset="1" stop-color="#10054d"/></linearGradient><radialGradient id="무제_그라디언트_773" cx="2982.16" cy="82.65" r="10.51" gradientTransform="matrix(-1, 0, 0, 1, 3050.01, 0)" gradientUnits="userSpaceOnUse"><stop offset="0.04" stop-color="#2591fe"/><stop offset="0.28" stop-color="#255cb4"/><stop offset="0.52" stop-color="#252c72"/><stop offset="1" stop-color="#12054e"/><stop offset="1" stop-color="#10054d"/></radialGradient><linearGradient id="무제_그라디언트_598-2" x1="2976.55" y1="92.8" x2="2997.54" y2="95.38" xlink:href="#무제_그라디언트_598"/><linearGradient id="무제_그라디언트_663-2" x1="2977.74" y1="93.55" x2="2991.04" y2="93.55" xlink:href="#무제_그라디언트_663"/><radialGradient id="무제_그라디언트_733" cx="-12421.62" cy="-4453.52" r="9.64" gradientTransform="matrix(-0.32, -0.19, 0, 0.98, -3899.83, 2039.04)" gradientUnits="userSpaceOnUse"><stop offset="0" stop-color="#273d74"/><stop offset="0.09" stop-color="#203260"/><stop offset="0.26" stop-color="#15203d"/><stop offset="0.44" stop-color="#0c1222"/><stop offset="0.62" stop-color="#05080f"/><stop offset="0.81" stop-color="#010204"/><stop offset="1"/></radialGradient><radialGradient id="무제_그라디언트_764" cx="-13165.63" cy="-3710.91" r="10.06" gradientTransform="matrix(-0.34, -0.15, 0.12, 0.97, -3992.63, 1658.64)" gradientUnits="userSpaceOnUse"><stop offset="0" stop-color="#272e70"/><stop offset="0.07" stop-color="#212760"/><stop offset="0.25" stop-color="#15193d"/><stop offset="0.43" stop-color="#0c0e22"/><stop offset="0.62" stop-color="#05060f"/><stop offset="0.8" stop-color="#010204"/><stop offset="1"/></radialGradient><linearGradient id="무제_그라디언트_598-3" x1="2957.04" y1="19.79" x2="2975.45" y2="19.79" xlink:href="#무제_그라디언트_598"/><linearGradient id="무제_그라디언트_872" x1="2958.96" y1="12.23" x2="2973.53" y2="20.65" gradientTransform="matrix(-1, 0, 0, 1, 3050.01, 0)" gradientUnits="userSpaceOnUse"><stop offset="0.08" stop-color="#fff"/><stop offset="0.19" stop-color="#f5f7fc"/><stop offset="0.39" stop-color="#dbe2f3"/><stop offset="0.65" stop-color="#b1bfe4"/><stop offset="0.94" stop-color="#7790d0"/><stop offset="1" stop-color="#6b86cc"/></linearGradient><linearGradient id="무제_그라디언트_598-4" x1="2964.87" y1="10.21" x2="2967.62" y2="10.21" xlink:href="#무제_그라디언트_598"/><radialGradient id="무제_그라디언트_543-2" cx="2965.27" cy="3.31" r="5.46" gradientTransform="matrix(-1, 0, 0, 1, 3050.01, 0)" xlink:href="#무제_그라디언트_543"/><radialGradient id="무제_그라디언트_883" cx="2957.06" cy="30.11" r="22.55" gradientTransform="matrix(-1, 0, 0, 1, 3050.01, 0)" gradientUnits="userSpaceOnUse"><stop offset="0" stop-color="#4060a0"/><stop offset="0.07" stop-color="#37538a"/><stop offset="0.22" stop-color="#273a60"/><stop offset="0.37" stop-color="#19253e"/><stop offset="0.52" stop-color="#0e1523"/><stop offset="0.68" stop-color="#06090f"/><stop offset="0.83" stop-color="#020204"/><stop offset="1"/></radialGradient><radialGradient id="New_Gradient_Swatch_copy_6" cx="2943.65" cy="40.27" r="8.62" gradientTransform="matrix(-1, 0, 0, 1, 3050.01, 0)" gradientUnits="userSpaceOnUse"><stop offset="0" stop-color="#43e8e1"/><stop offset="0.14" stop-color="#34b5b0"/><stop offset="0.3" stop-color="#257f7b"/><stop offset="0.46" stop-color="#17514f"/><stop offset="0.62" stop-color="#0d2e2d"/><stop offset="0.76" stop-color="#061514"/><stop offset="0.89" stop-color="#020505"/><stop offset="1"/></radialGradient><radialGradient id="New_Gradient_Swatch_copy_6-2" cx="2957.09" cy="48.2" r="8.62" xlink:href="#New_Gradient_Swatch_copy_6"/><radialGradient id="radial-gradient" cx="-17909.17" cy="-1586.88" r="27.46" gradientTransform="matrix(-0.22, -0.06, -0.24, 0.97, -4238.83, 640.04)" gradientUnits="userSpaceOnUse"><stop offset="0" stop-color="#972a74"/><stop offset="0.02" stop-color="#8c276c"/><stop offset="0.11" stop-color="#671d4f"/><stop offset="0.21" stop-color="#471437"/><stop offset="0.32" stop-color="#2d0d23"/><stop offset="0.43" stop-color="#190713"/><stop offset="0.57" stop-color="#0b0308"/><stop offset="0.73" stop-color="#020102"/><stop offset="1"/></radialGradient><linearGradient id="linear-gradient-5" x1="5580.47" y1="10109.07" x2="5589.15" y2="10109.07" gradientTransform="matrix(-0.61, 1.06, 0.61, 0.35, -2668.35, -9368.59)" xlink:href="#linear-gradient"/><linearGradient id="무제_그라디언트_1195" x1="2879.53" y1="96.54" x2="2960.65" y2="96.54" gradientTransform="matrix(-1, 0, 0, 1, 3050.01, 0)" gradientUnits="userSpaceOnUse"><stop offset="0" stop-color="#43e8e1"/><stop offset="0.09" stop-color="#2fbed4"/><stop offset="0.19" stop-color="#1e9bc9"/><stop offset="0.28" stop-color="#1181c0"/><stop offset="0.38" stop-color="#076dba"/><stop offset="0.48" stop-color="#0262b6"/><stop offset="0.58" stop-color="#005eb5"/><stop offset="1" stop-color="#222ac9"/></linearGradient><linearGradient id="무제_그라디언트_1237" x1="17262.27" y1="-1762.78" x2="17262.27" y2="-1779.92" gradientTransform="matrix(1, 0, 0, -1, -17114.49, -1650.51)" gradientUnits="userSpaceOnUse"><stop offset="0.01" stop-color="#2af6ff"/><stop offset="1" stop-color="#277eff"/></linearGradient><linearGradient id="무제_그라디언트_1237-2" x1="17262.27" y1="-1768.76" x2="17262.27" y2="-1785.9" xlink:href="#무제_그라디언트_1237"/><linearGradient id="무제_그라디언트_1237-3" x1="17227.32" y1="-1773.05" x2="17227.32" y2="-1783.15" xlink:href="#무제_그라디언트_1237"/><linearGradient id="무제_그라디언트_1237-4" x1="17227.32" y1="-1767.07" x2="17227.32" y2="-1777.17" xlink:href="#무제_그라디언트_1237"/><linearGradient id="무제_그라디언트_1237-5" x1="17227.32" y1="-1761.09" x2="17227.32" y2="-1771.2" xlink:href="#무제_그라디언트_1237"/><linearGradient id="무제_그라디언트_1237-6" x1="17227.32" y1="-1779.02" x2="17227.32" y2="-1789.13" xlink:href="#무제_그라디언트_1237"/><linearGradient id="무제_그라디언트_1237-7" x1="17227.32" y1="-1785" x2="17227.32" y2="-1795.12" xlink:href="#무제_그라디언트_1237"/><linearGradient id="무제_그라디언트_1237-8" x1="17262.27" y1="-1756.8" x2="17262.27" y2="-1773.94" xlink:href="#무제_그라디언트_1237"/><linearGradient id="무제_그라디언트_1237-9" x1="17262.27" y1="-1750.83" x2="17262.27" y2="-1767.97" xlink:href="#무제_그라디언트_1237"/><linearGradient id="무제_그라디언트_1237-10" x1="17262.27" y1="-1744.85" x2="17262.27" y2="-1761.99" xlink:href="#무제_그라디언트_1237"/><linearGradient id="무제_그라디언트_1237-11" x1="17262.27" y1="-1738.87" x2="17262.27" y2="-1756.01" xlink:href="#무제_그라디언트_1237"/><linearGradient id="무제_그라디언트_1237-12" x1="17262.27" y1="-1714.97" x2="17262.27" y2="-1732.11" xlink:href="#무제_그라디언트_1237"/><linearGradient id="무제_그라디언트_1237-13" x1="17262.27" y1="-1720.95" x2="17262.27" y2="-1738.08" xlink:href="#무제_그라디언트_1237"/><linearGradient id="무제_그라디언트_1237-14" x1="17262.27" y1="-1726.92" x2="17262.27" y2="-1744.06" xlink:href="#무제_그라디언트_1237"/><linearGradient id="무제_그라디언트_1237-15" x1="17262.27" y1="-1732.9" x2="17262.27" y2="-1750.04" xlink:href="#무제_그라디언트_1237"/><linearGradient id="무제_그라디언트_1237-16" x1="17227.32" y1="-1755.12" x2="17227.32" y2="-1765.22" xlink:href="#무제_그라디언트_1237"/><linearGradient id="무제_그라디언트_1237-17" x1="17227.32" y1="-1731.21" x2="17227.32" y2="-1741.32" xlink:href="#무제_그라디언트_1237"/><linearGradient id="무제_그라디언트_1237-18" x1="17227.32" y1="-1737.19" x2="17227.32" y2="-1747.29" xlink:href="#무제_그라디언트_1237"/><linearGradient id="무제_그라디언트_1237-19" x1="17227.32" y1="-1725.23" x2="17227.32" y2="-1735.34" xlink:href="#무제_그라디언트_1237"/><linearGradient id="무제_그라디언트_1237-20" x1="17227.32" y1="-1749.14" x2="17227.32" y2="-1759.24" xlink:href="#무제_그라디언트_1237"/><linearGradient id="무제_그라디언트_1237-21" x1="17227.32" y1="-1743.16" x2="17227.32" y2="-1753.27" xlink:href="#무제_그라디언트_1237"/><linearGradient id="무제_그라디언트_1237-22" x1="17262.27" y1="-1703.04" x2="17262.27" y2="-1720.15" xlink:href="#무제_그라디언트_1237"/><linearGradient id="무제_그라디언트_1237-23" x1="17227.32" y1="-1719.28" x2="17227.32" y2="-1729.36" xlink:href="#무제_그라디언트_1237"/><linearGradient id="무제_그라디언트_1237-24" x1="17262.27" y1="-1708.99" x2="17262.27" y2="-1726.13" xlink:href="#무제_그라디언트_1237"/><linearGradient id="무제_그라디언트_1252" x1="2962.81" y1="40.42" x2="2858.43" y2="75.59" gradientTransform="matrix(-1, 0, 0, 1, 3050.01, 0)" gradientUnits="userSpaceOnUse"><stop offset="0" stop-color="#2af6ff"/><stop offset="0.01" stop-color="#29f3ff"/><stop offset="0.14" stop-color="#1ec1ff"/><stop offset="0.28" stop-color="#1596ff"/><stop offset="0.42" stop-color="#0d74ff"/><stop offset="0.56" stop-color="#0859ff"/><stop offset="0.7" stop-color="#0345ff"/><stop offset="0.85" stop-color="#013aff"/><stop offset="1" stop-color="#0036ff"/></linearGradient></defs><title>자산 2</title><g class="cls-1"><g id="레이어_2" data-name="레이어 2"><g id="레이어_1-2" data-name="레이어 1"><ellipse class="cls-2" cx="83.22" cy="158.82" rx="52.2" ry="30.14"/><ellipse class="cls-3" cx="83.22" cy="158.82" rx="14.67" ry="26.4" transform="translate(-80.05 232.91) rotate(-86.75)"/><g class="cls-4"><path class="cls-5" d="M149.1,51.25c.58,3.25,3,11.42,12.94,17.07,14.16,6.54,24,15.14,27.25,24.74.24.63.56,1.46.86,2.06.35-.58.35-.58.35-2V77c0-9.46-.53-11.55-1.21-14.19C186,53.23,176.2,44.63,162,38.09c-11.3-3.64-14,6.95-12.94,13.16Z"/><path class="cls-5" d="M45.25,31.91a182.31,182.31,0,0,1,51.66-6.64c2.5,0,5,.08,7.42.19C121,27,126.87,44.54,116.85,52.22c-4.6,3.52-10.15,3.48-12.52,3.47s-4.92-.18-7.42-.2a182.66,182.66,0,0,0-51.66,6.65c-15.14,3.69-16-11.7-10.74-21.11a19.1,19.1,0,0,1,10.74-9.12Z"/><path class="cls-5" d="M0,100.22C.41,95.43.74,91.65,5.62,85c10.28-15.17,8.2-32.81,2.52-32a5.63,5.63,0,0,0-2.52,1.76A25.08,25.08,0,0,0,0,69.2c0,.26,0,.53,0,.79v30.23Z"/></g><path class="cls-6" d="M76.45,123.09c0,7.82,3.29,28.3,7.35,28.3s7.34-20.48,7.34-28.3c0-6.88-3.29-8.54-7.34-8.54S76.45,116.21,76.45,123.09Z"/><path class="cls-7" d="M76.84,123c0,7.63,3.11,27.91,7,27.91s7-20.28,7-27.91c0-6.73-3.11-8.35-7-8.35S76.84,116.27,76.84,123Z"/><path class="cls-8" d="M77.23,122.9c0,7.45,2.94,27.54,6.57,27.54s6.56-20.09,6.56-27.54c0-6.56-2.94-8.14-6.56-8.14S77.23,116.34,77.23,122.9Z"/><path class="cls-9" d="M77.63,122.81c0,7.26,2.76,27.15,6.17,27.15S90,130.07,90,122.81c0-6.4-2.77-7.94-6.17-7.94S77.63,116.41,77.63,122.81Z"/><path class="cls-10" d="M78,122.71c0,7.08,2.58,26.77,5.78,26.77s5.77-19.69,5.77-26.77c0-6.23-2.58-7.73-5.77-7.73S78,116.48,78,122.71Z"/><path class="cls-11" d="M78.41,122.62c0,6.89,2.41,26.39,5.39,26.39s5.38-19.5,5.38-26.39c0-6.07-2.41-7.53-5.38-7.53S78.41,116.55,78.41,122.62Z"/><path class="cls-12" d="M78.8,122.52c0,6.71,2.24,26,5,26s5-19.3,5-26c0-5.9-2.24-7.33-5-7.33S78.8,116.62,78.8,122.52Z"/><path class="cls-13" d="M79.19,122.43c0,6.52,2.06,25.62,4.61,25.62s4.6-19.1,4.6-25.62c0-5.74-2.06-7.13-4.6-7.13S79.19,116.69,79.19,122.43Z"/><path class="cls-14" d="M79.59,122.33c0,6.34,1.88,25.25,4.21,25.25S88,128.67,88,122.33c0-5.58-1.88-6.92-4.2-6.92S79.59,116.75,79.59,122.33Z"/><path class="cls-15" d="M80,122.24c0,6.14,1.71,24.86,3.82,24.86s3.81-18.72,3.81-24.86c0-5.42-1.71-6.72-3.81-6.72S80,116.82,80,122.24Z"/><path class="cls-16" d="M80.37,122.14c0,6,1.53,24.48,3.43,24.48s3.42-18.52,3.42-24.48c0-5.25-1.53-6.51-3.42-6.51S80.37,116.89,80.37,122.14Z"/><path class="cls-17" d="M80.76,122.05c0,5.77,1.36,24.1,3,24.1s3-18.33,3-24.1c0-5.09-1.36-6.32-3-6.32S80.76,117,80.76,122.05Z"/><path class="cls-18" d="M77.88,112.42H89.64v1.66h0v0c0,1.89-2.63,3.42-5.88,3.42s-5.88-1.53-5.88-3.42v0h0Z"/><path class="cls-19" d="M99,73.55c.93,4.16,5.7,18.41,8.9,17.7s3.85-16.08,2.71-20.28c-1-3.63-3.86-5.49-7.07-4.78A6,6,0,0,0,99,73.55Z"/><ellipse class="cls-20" cx="83.76" cy="112.45" rx="5.88" ry="3.42"/><path class="cls-21" d="M57.59,69.5c0,14.47,11.74,44.77,26.21,44.77S110,84,110,69.5c0-12.74-11.73-15.81-26.2-15.81S57.59,56.76,57.59,69.5Z"/><ellipse class="cls-22" cx="83.73" cy="67.42" rx="25.71" ry="14.97"/><ellipse class="cls-23" cx="83.74" cy="67.32" rx="25.4" ry="14.79"/><ellipse class="cls-24" cx="83.75" cy="67.22" rx="25.09" ry="14.61"/><ellipse class="cls-25" cx="83.76" cy="67.12" rx="24.78" ry="14.43"/><ellipse class="cls-26" cx="83.77" cy="67.02" rx="24.47" ry="14.25"/><ellipse class="cls-27" cx="83.78" cy="66.92" rx="24.16" ry="14.07"/><ellipse class="cls-28" cx="83.79" cy="66.82" rx="23.85" ry="13.89"/><ellipse class="cls-29" cx="83.8" cy="66.71" rx="23.54" ry="13.71"/><ellipse class="cls-30" cx="83.81" cy="66.61" rx="23.23" ry="13.53"/><ellipse class="cls-31" cx="83.82" cy="66.51" rx="22.92" ry="13.35"/><ellipse class="cls-32" cx="83.83" cy="66.41" rx="22.62" ry="13.17"/><ellipse class="cls-33" cx="83.84" cy="66.31" rx="22.31" ry="12.99"/><ellipse class="cls-34" cx="80.82" cy="63.44" rx="22.3" ry="12.98"/><ellipse class="cls-35" cx="80.87" cy="63.48" rx="21.72" ry="12.65"/><ellipse class="cls-36" cx="80.92" cy="63.52" rx="21.15" ry="12.32"/><ellipse class="cls-37" cx="80.97" cy="63.55" rx="20.58" ry="11.98"/><ellipse class="cls-38" cx="81.02" cy="63.59" rx="20" ry="11.65"/><ellipse class="cls-39" cx="81.07" cy="63.63" rx="19.43" ry="11.31"/><ellipse class="cls-40" cx="81.12" cy="63.67" rx="18.86" ry="10.98"/><ellipse class="cls-41" cx="81.17" cy="63.71" rx="18.28" ry="10.65"/><ellipse class="cls-42" cx="81.22" cy="63.74" rx="17.71" ry="10.31"/><ellipse class="cls-43" cx="81.27" cy="63.78" rx="17.13" ry="9.98"/><ellipse class="cls-44" cx="81.32" cy="63.82" rx="16.56" ry="9.64"/><ellipse class="cls-45" cx="81.37" cy="63.86" rx="15.99" ry="9.31"/><circle class="cls-46" cx="83.66" cy="42.82" r="30.76" transform="translate(-5.81 14.04) rotate(-9.27)"/><path class="cls-47" d="M111.93,45.54h0A41.73,41.73,0,0,1,86.45,60.16h0a4.42,4.42,0,0,1-5.13-4.36v-8A8.13,8.13,0,0,1,87.09,40h0a45.12,45.12,0,0,0,19.07-11.54h0a2.66,2.66,0,0,1,4.24.6,30,30,0,0,1,3.29,10.61A7.88,7.88,0,0,1,111.93,45.54Z"/><path class="cls-48" d="M104,41.8c0,1.45,1,2,2.3,1.31a5.09,5.09,0,0,0,2.29-4c0-1.46-1-2-2.29-1.31A5,5,0,0,0,104,41.8Z"/><path class="cls-48" d="M90.75,49.43c0,1.46,1,2,2.3,1.31a5,5,0,0,0,2.29-4c0-1.45-1-2-2.29-1.31A5.08,5.08,0,0,0,90.75,49.43Z"/><circle class="cls-49" cx="65.51" cy="86.05" r="7.16"/><path class="cls-50" d="M59.12,89.22c.91,5.39,8.47,17.22,11.67,16.5s.35-15.28-.58-19.44a5.81,5.81,0,0,0-7.07-4.78C59.94,82.21,58.49,85.52,59.12,89.22Z"/><path class="cls-51" d="M59.12,89.22c.91,5.39,8.47,17.22,11.67,16.5s.35-15.28-.58-19.44a5.81,5.81,0,0,0-7.07-4.78C59.94,82.21,58.49,85.52,59.12,89.22Z"/><path class="cls-52" d="M64.43,87.9c.31,4.25,5.27,16.22,6.29,16.15s-.67-10.88-1.26-15.45C69,84.87,67.85,83,66.87,82.66,64.08,81.74,64.15,84.15,64.43,87.9Z"/><path class="cls-53" d="M59.78,89.78c1.31,6.3,7.8,14.67,8.81,14.47s-4.75-8.63-5.87-13.1c-.91-3.65,0-7.35-1-7.55C58.79,83,59,86.11,59.78,89.78Z"/><path class="cls-54" d="M74.57,16.4H93v1.34h0v.08c0,3-4.12,5.35-9.2,5.35s-9.2-2.39-9.2-5.35v-.08h0Z"/><ellipse class="cls-55" cx="83.77" cy="16.44" rx="9.2" ry="5.36"/><path class="cls-56" d="M82.39,3.74h2.76V15.86h0c0,.44-.62.8-1.38.8s-1.38-.36-1.38-.8h0Z"/><path class="cls-57" d="M79.68,4.09A4.09,4.09,0,1,0,83.77,0,4.09,4.09,0,0,0,79.68,4.09Z"/><circle class="cls-58" cx="90" cy="34.06" r="19.49"/><path class="cls-59" d="M97.74,40.27a8.63,8.63,0,1,0,8.63-8.62A8.62,8.62,0,0,0,97.74,40.27Z"/><path class="cls-60" d="M84.3,48.2a8.62,8.62,0,1,0,8.62-8.62A8.62,8.62,0,0,0,84.3,48.2Z"/><path class="cls-61" d="M97.43,80.6c-3.5,14-10.74,30.22-9,31,3,1.37,14.94-14.51,18.44-28.55,3.08-12.36,1.62-26.9-1.58-27.69S100.5,68.24,97.43,80.6Z"/><path class="cls-62" d="M105,60.61l2.21-3.81c.44-.75,0-1.32-.6-.75l-3,3A5,5,0,0,1,101,60.5L98,61c-.58.1-1,1.2-.6,1.45l2.21,1.26C101.1,64.57,103.51,63.18,105,60.61Z"/><path class="cls-63" d="M170.49,123.06c-19.52,15.22-48.12,26.25-81.12,30.41V70c33-4.16,61.6-15.19,81.12-30.42Z"/><g class="cls-64"><path class="cls-65" d="M88.52,154.44l1-.13c32.54-4.1,61.5-15,81.53-30.58l.33-.26V37.87L170,38.94c-19.79,15.44-48.45,26.18-80.7,30.24l-.74.1Zm81.12-31.8c-19.59,15.15-47.74,25.74-79.42,29.86V70.78c31.51-4.08,59.6-14.5,79.42-29.44Z"/></g><g class="cls-64"><path class="cls-66" d="M133.25,126.67a144.88,144.88,0,0,0,29.05-14.39v3a149.05,149.05,0,0,1-29.05,14.11Z"/><path class="cls-67" d="M133.25,135.39v-2.74a144.36,144.36,0,0,0,29.05-14.4v3A149.05,149.05,0,0,1,133.25,135.39Z"/><path class="cls-68" d="M128,122.54v2.71a201.74,201.74,0,0,1-30.36,7.4V130A199.36,199.36,0,0,0,128,122.54Z"/><path class="cls-69" d="M128,116.56v2.72a203,203,0,0,1-30.36,7.39V124A199.36,199.36,0,0,0,128,116.56Z"/><path class="cls-70" d="M128,110.59v2.71a201.74,201.74,0,0,1-30.36,7.39v-2.64A199.36,199.36,0,0,0,128,110.59Z"/><path class="cls-71" d="M128,128.52v2.71a201.74,201.74,0,0,1-30.36,7.39V136A199.36,199.36,0,0,0,128,128.52Z"/><path class="cls-72" d="M97.65,142A199.36,199.36,0,0,0,128,134.49v2.72a200.54,200.54,0,0,1-30.36,7.4Z"/><path class="cls-73" d="M133.25,120.7a144.36,144.36,0,0,0,29.05-14.4v3a149.07,149.07,0,0,1-29.05,14.12Z"/><path class="cls-74" d="M162.3,100.32v3a149.07,149.07,0,0,1-29.05,14.12v-2.74A144.36,144.36,0,0,0,162.3,100.32Z"/><path class="cls-75" d="M162.3,94.35v3a149.05,149.05,0,0,1-29.05,14.11v-2.74A144.88,144.88,0,0,0,162.3,94.35Z"/><path class="cls-76" d="M162.3,88.37v3a149.07,149.07,0,0,1-29.05,14.12v-2.74A144.36,144.36,0,0,0,162.3,88.37Z"/><path class="cls-77" d="M162.3,64.46v3A149.62,149.62,0,0,1,133.25,81.6V78.86A144.36,144.36,0,0,0,162.3,64.46Z"/><path class="cls-78" d="M162.3,70.44v3a149.07,149.07,0,0,1-29.05,14.12V84.84A144.36,144.36,0,0,0,162.3,70.44Z"/><path class="cls-79" d="M162.3,76.42v3a149.05,149.05,0,0,1-29.05,14.11V90.81A144.35,144.35,0,0,0,162.3,76.42Z"/><path class="cls-80" d="M162.3,82.39v3a149.62,149.62,0,0,1-29.05,14.11V96.79A144.36,144.36,0,0,0,162.3,82.39Z"/><path class="cls-81" d="M128,104.61v2.71a201.74,201.74,0,0,1-30.36,7.4v-2.65A199.36,199.36,0,0,0,128,104.61Z"/><path class="cls-82" d="M128,80.71v2.71a201.74,201.74,0,0,1-30.36,7.39V88.17A200.54,200.54,0,0,0,128,80.71Z"/><path class="cls-83" d="M128,86.68v2.71a201.74,201.74,0,0,1-30.36,7.4V94.14A199.36,199.36,0,0,0,128,86.68Z"/><path class="cls-84" d="M128,74.73v2.71a201.74,201.74,0,0,1-30.36,7.39V82.19A199.36,199.36,0,0,0,128,74.73Z"/><path class="cls-85" d="M128,98.63v2.72a203,203,0,0,1-30.36,7.39v-2.65A198.18,198.18,0,0,0,128,98.63Z"/><path class="cls-86" d="M128,92.66v2.71a201.74,201.74,0,0,1-30.36,7.39v-2.64A199.36,199.36,0,0,0,128,92.66Z"/><path class="cls-87" d="M162.3,55.53a149.07,149.07,0,0,1-29.05,14.12V66.93a144.36,144.36,0,0,0,29.05-14.4Z"/><path class="cls-88" d="M128,68.77v2.69a201.74,201.74,0,0,1-30.36,7.4V76.23A199.36,199.36,0,0,0,128,68.77Z"/><path class="cls-89" d="M133.25,75.63V72.88A144.35,144.35,0,0,0,162.3,58.49v3A149.64,149.64,0,0,1,133.25,75.63Z"/></g><path class="cls-90" d="M170.49,39.61,110.69,26.9l-27,15.92L89.37,70l4.31-.4a148.79,148.79,0,0,0,74.48-28.3Z"/><g class="cls-91"><path class="cls-92" d="M11.07,109.08c-.69,5.55-3.56,8.85-6.59,4.72A24.39,24.39,0,0,1,0,100.22V70A24,24,0,0,0,4.48,83.57c6.39,10.58,7.15,21,6.59,25.51Z"/><path class="cls-92" d="M100.81,114.62q-3.57.1-7.22.07c-19-.16-36.61-2.91-51.31-7.54-14.68-3.92-15.56,11.44-10.44,20.93,3.65,6.75,8.58,8.6,10.44,9.3,14.7,4.62,32.3,7.38,51.31,7.54,2.43,0,4.84,0,7.22-.07,17.25-1.27,21.77-17.84,13.71-25.57-2.25-2.16-6.46-4.72-13.71-4.66Z"/><path class="cls-92" d="M190.49,90.52c-.08,13.07-.85,15.45-1.82,18.46-4,9.54-14.52,18-29.19,24.25-12.84,3.79-16.38-9.56-11.16-19.45A25.67,25.67,0,0,1,159.48,103c14.67-6.29,25.15-14.71,29.19-24.24a14.48,14.48,0,0,1,1.11-2.05l.33,0c.24.7.35,1,.38,4.55v9.3Z"/></g></g></g></g></svg>