<svg xmlns="http://www.w3.org/2000/svg" xmlns:xlink="http://www.w3.org/1999/xlink" viewBox="0 0 90.46 90.46">
    <defs>
        <style>.cls-1{fill:none;}.cls-2{fill:#5aaae7;}.cls-3{fill:#e6f0fa;}.cls-4{fill:#3d9ae2;}.cls-5{clip-path:url(#clip-path);}.cls-6{fill:#d8d7da;}.cls-7{fill:#d1d3d4;}.cls-8{fill:#c6c5ca;}.cls-9{fill:#1b2c49;}.cls-10{fill:#285196;}.cls-11{fill:#898890;}.cls-12{fill:#acabb1;}.cls-13{fill:#47c4ee;}.cls-14{fill:#bbc5ce;}.cls-15{fill:#2081a1;}.cls-16{fill:#bcbec0;}</style>
        <clipPath id="clip-path" transform="translate(0 -0.06)">
            <rect id="SVGID" class="cls-1" width="90.52" height="90.52" />
        </clipPath>
    </defs>
    <title>자산 5</title>
    <g id="레이어_2" data-name="레이어 2">
        <g id="레이어_1-2" data-name="레이어 1">
            <path class="cls-2" d="M80.23,19.54V59.66H0V19.54a6.17,6.17,0,0,1,6.17-6.17H74.06a6.17,6.17,0,0,1,6.17,6.17Z" transform="translate(0 -0.06)" />
            <path class="cls-3" d="M71,7.2V59.66H9.26V13.37h9.25a3.08,3.08,0,0,0,3.09-3.08V1H64.8A6.17,6.17,0,0,1,71,7.2Z" transform="translate(0 -0.06)" />
            <path class="cls-4" d="M80.23,19.54a6.17,6.17,0,0,0-6.17-6.17H71.5L71,13.9V31.35l9.26-9.26Z" transform="translate(0 -0.06)" />
            <g class="cls-5">
                <path class="cls-6" d="M68.41,16.46,54.83,30.05l-2.42,6.3-3,7.88,7.89-3,6.29-2.42L71,31.35V13.9Z" transform="translate(0 -0.06)" />
                <path class="cls-7" d="M88.65,1.86a6.17,6.17,0,0,1,0,8.73l-2.19,2.2L82.1,8.42,77.73,4.05l2.19-2.19a6.19,6.19,0,0,1,8.73,0Z" transform="translate(0 -0.06)" />
            </g>
            <path class="cls-8" d="M80.23,59.66v6.17A6.17,6.17,0,0,1,74.06,72H6.17A6.17,6.17,0,0,1,0,65.83V59.66Z" transform="translate(0 -0.06)" />
            <path class="cls-9" d="M82.1,8.42,71,19.54,59.2,31.33l4.35,4.35L71,28.26,80.2,19l6.26-6.24Z" transform="translate(0 -0.06)" />
            <path class="cls-10" d="M82.1,8.42,71,19.54,59.2,31.33h0L54.83,27,68.41,13.37,71,10.81l6.76-6.76Z" transform="translate(0 -0.06)" />
            <path class="cls-8" d="M63.55,35.68,57.26,38.1l-4.85-4.84L54.83,27l4.36,4.37h0Z" transform="translate(0 -0.06)" />
            <path class="cls-11" d="M57.72,85.25a3,3,0,0,1,.91,2.18,3.1,3.1,0,0,1-3.09,3.09H24.69a3.09,3.09,0,0,1,0-6.18H55.54a3.06,3.06,0,0,1,2.18.91Z" transform="translate(0 -0.06)" />
            <path class="cls-11" d="M57.26,38.1l-7.89,3,3-7.88Z" transform="translate(0 -0.06)" />
            <path class="cls-12" d="M52.46,84.34H27.77L29.31,72H50.92Z" transform="translate(0 -0.06)" />
            <path class="cls-6" d="M32.14,24.43a6.19,6.19,0,1,1-4.37-1.8,6.2,6.2,0,0,1,4.37,1.8Z" transform="translate(0 -0.06)" />
            <path class="cls-6" d="M32.14,43a6.18,6.18,0,1,1-4.37-1.81A6.26,6.26,0,0,1,32.14,43Z" transform="translate(0 -0.06)" />
            <path class="cls-13" d="M32.14,21.35a6.18,6.18,0,1,1-4.37-1.81,6.26,6.26,0,0,1,4.37,1.81Z" transform="translate(0 -0.06)" />
            <path class="cls-13" d="M32.14,39.86a6.19,6.19,0,1,1-4.37-1.8,6.2,6.2,0,0,1,4.37,1.8Z" transform="translate(0 -0.06)" />
            <path class="cls-14" d="M21.6,1v9.26a3.08,3.08,0,0,1-3.09,3.08H9.26Z" transform="translate(0 -0.06)" />
            <path class="cls-11" d="M51.3,75.09H28.93L29.31,72H50.92Z" transform="translate(0 -0.06)" />
            <rect class="cls-11" x="69.43" y="64.23" width="3.09" height="3.09" />
            <path class="cls-15" d="M25.13,26.17l9.26-9.26,2.18,2.18-9.26,9.26Z" transform="translate(0 -0.06)" />
            <rect class="cls-16" x="41.66" y="21.03" width="10.8" height="3.09" />
            <rect class="cls-16" x="41.66" y="27.2" width="6.17" height="3.09" />
            <path class="cls-15" d="M25.13,44.68l9.25-9.26,2.19,2.19-9.26,9.25Z" transform="translate(0 -0.06)" />
            <rect class="cls-16" x="41.66" y="39.54" width="3.09" height="3.09" />
            <rect class="cls-16" x="41.66" y="45.72" width="12.34" height="3.09" />
        </g>
    </g>
</svg>