<svg xmlns="http://www.w3.org/2000/svg" viewBox="0 0 32 34.51"><defs><style>.cls-1{fill:#23628f;}.cls-2{fill:#47c4ee;}</style></defs><title>자산 2</title><g id="레이어_2" data-name="레이어 2"><g id="레이어_1-2" data-name="레이어 1"><path class="cls-1" d="M24.74,0H7.26a1.15,1.15,0,0,0,0,2.29H24.74a1.15,1.15,0,0,0,0-2.29Z"/><path class="cls-2" d="M30.17,4.34H1.83A1.83,1.83,0,0,0,0,6.17v19.2A1.83,1.83,0,0,0,1.83,27.2H6.71l-2,5.46a1.37,1.37,0,0,0,.8,1.77,1.34,1.34,0,0,0,.48.08,1.36,1.36,0,0,0,1.29-.89L9.64,27.2h5v5.94a1.37,1.37,0,1,0,2.74,0V27.2h5l2.41,6.42a1.36,1.36,0,0,0,1.29.89,1.34,1.34,0,0,0,.48-.08,1.37,1.37,0,0,0,.8-1.77L25.29,27.2h4.88A1.83,1.83,0,0,0,32,25.37V6.17A1.83,1.83,0,0,0,30.17,4.34Zm-19.43,16a.92.92,0,1,1-1.83,0V18.51H5.26v1.83a.92.92,0,1,1-1.83,0v-6.4a3.66,3.66,0,0,1,7.31,0Zm6.4.92h-3.2a.92.92,0,0,1-.91-.92V11.2a.91.91,0,0,1,.91-.91h2.29a3.19,3.19,0,0,1,2.59,5.06,3.19,3.19,0,0,1-1.68,5.91Zm7.77-1.83c1,0,1.83-.63,1.83-1.37a.92.92,0,1,1,1.83,0,3.46,3.46,0,0,1-3.66,3.2,3.46,3.46,0,0,1-3.65-3.2V13.49a3.45,3.45,0,0,1,3.65-3.2,3.45,3.45,0,0,1,3.66,3.2.92.92,0,0,1-1.83,0c0-.75-.83-1.38-1.83-1.38s-1.82.63-1.82,1.38v4.57C23.09,18.8,23.92,19.43,24.91,19.43ZM7.09,12.11a1.83,1.83,0,0,0-1.83,1.83v2.75H8.91V13.94A1.83,1.83,0,0,0,7.09,12.11Zm10.05,4.58H14.86v2.74h2.28a1.37,1.37,0,1,0,0-2.74Zm.46-3.2a1.38,1.38,0,0,0-1.37-1.38H14.86v2.75h1.37A1.38,1.38,0,0,0,17.6,13.49Z"/></g></g></svg>