<svg xmlns="http://www.w3.org/2000/svg" xmlns:xlink="http://www.w3.org/1999/xlink" viewBox="0 0 90.98 90">
    <defs>
        <style>.cls-1{fill:none;}.cls-2{fill:#e6f0fa;}.cls-3{clip-path:url(#clip-path);}.cls-4{fill:#57565c;}.cls-5{fill:#d1d3d4;}.cls-6{fill:#d8d7da;}.cls-7{fill:#1b2c49;}.cls-8{fill:#285196;}.cls-9{fill:#c6c5ca;}.cls-10{fill:#47c4ee;}.cls-11{fill:#898890;}.cls-12{fill:#5aaae7;}.cls-13{fill:#e6e7e8;}.cls-14{fill:#bbc5ce;}.cls-15{fill:#3d9ae2;}.cls-16{fill:#ffc477;}.cls-17{fill:#ffb655;}.cls-18{fill:#ee8700;}.cls-19{fill:#2081a1;}.cls-20{fill:#bcbec0;}</style>
        <clipPath id="clip-path">
            <rect class="cls-1" width="91.03" height="90" />
        </clipPath>
    </defs>
    <title>자산 6</title>
    <g id="레이어_2" data-name="레이어 2">
        <g id="레이어_1-2" data-name="레이어 1">
            <path class="cls-2" d="M72.93,6.21V71.38a6.21,6.21,0,0,1-6.21,6.21H17.07a6.21,6.21,0,0,1-6.21-6.21v-59h9.31a3.12,3.12,0,0,0,3.11-3.1V0H66.72a6.21,6.21,0,0,1,6.21,6.21Z" />
            <g class="cls-3">
                <path class="cls-4" d="M9.31,41.93V35.72a12.18,12.18,0,0,1,1.55-6,12.41,12.41,0,0,1,23.28,6v6.21C34.14,46,28.57,56,21.72,56S9.31,46,9.31,41.93Z" />
                <path class="cls-5" d="M89.16,28.77a6.22,6.22,0,0,1,0,8.78L87,39.75l-4.39-4.39L78.18,31l2.2-2.2a6.22,6.22,0,0,1,8.78,0Z" />
            </g>
            <path class="cls-6" d="M72.93,39.32V56.87l-9,9-6.34,2.43-7.92,3.06,3.05-7.93,2.44-6.33Z" />
            <path class="cls-7" d="M82.57,35.36,72.93,45,59.54,58.41l4.38,4.37,9-9,14-14Z" />
            <path class="cls-8" d="M78.18,31l-5.25,5.25L55.15,54l4.37,4.39h0L72.93,45l9.64-9.64Z" />
            <path class="cls-9" d="M63.92,62.78l-6.34,2.44-4.87-4.87L55.15,54l4.37,4.39h0Z" />
            <path class="cls-6" d="M61.81,23.54a6.22,6.22,0,1,1-4.4-1.82,6.3,6.3,0,0,1,4.4,1.82Z" />
            <path class="cls-10" d="M61.81,20.44a6.22,6.22,0,1,1-4.4-1.82,6.22,6.22,0,0,1,4.4,1.82Z" />
            <path class="cls-11" d="M57.58,65.22l-7.92,3.06,3.05-7.93Z" />
            <rect class="cls-12" x="21.72" y="77.59" width="21.72" height="12.41" />
            <path class="cls-12" d="M43.45,75.41v2.18H21.72V74.48l9.22-12.3,3.85,1.41h0l.47.17a12.38,12.38,0,0,1,8.18,11.65Z" />
            <path class="cls-13" d="M30.94,62.18l-9.22,12.3-9.21-12.3.94-.34a10.62,10.62,0,0,0,8.27,3.33A10.59,10.59,0,0,0,30,61.84Z" />
            <path class="cls-14" d="M23.28,0V9.31a3.12,3.12,0,0,1-3.11,3.1H10.86Z" />
            <path class="cls-15" d="M21.72,77.59V90H0V75.41A12.37,12.37,0,0,1,8.18,63.76l.46-.17h0l2.2-.81v8.6a6.21,6.21,0,0,0,6.21,6.21Z" />
            <path class="cls-15" d="M21.72,74.48v3.11H17.07a6.21,6.21,0,0,1-6.21-6.21v-8.6l1.65-.6Z" />
            <path class="cls-16" d="M30,61.84a10.59,10.59,0,0,1-8.27,3.33,10.62,10.62,0,0,1-8.27-3.33l3.62-1.32V54.31h9.31v6.21Z" />
            <path class="cls-16" d="M30,61.84a10.59,10.59,0,0,1-8.27,3.33,10.62,10.62,0,0,1-8.27-3.33l3.62-1.32V54.31h9.31v6.21Z" />
            <path class="cls-17" d="M26.38,54.31v3.6a10.77,10.77,0,0,1-9.31,0v-3.6Z" />
            <path class="cls-16" d="M32.59,41.9V45A10.5,10.5,0,0,1,32,48.38v0A10.86,10.86,0,0,1,10.86,45V38.79h6A6.2,6.2,0,0,0,22,36l1.26-1.89L26.12,37a6.21,6.21,0,0,0,4.39,1.81h2.08Z" />
            <rect class="cls-18" x="15.52" y="41.9" width="3.1" height="3.1" />
            <rect class="cls-18" x="24.83" y="41.9" width="3.1" height="3.1" />
            <path class="cls-19" d="M54.76,25.29,64.06,16l2.2,2.19L57,27.48Z" />
            <rect class="cls-20" x="31.03" y="7.76" width="3.1" height="3.1" />
            <rect class="cls-20" x="37.24" y="7.76" width="12.41" height="3.1" />
            <rect class="cls-20" x="31.03" y="13.97" width="18.62" height="3.1" />
            <rect class="cls-20" x="40.34" y="29.48" width="6.21" height="3.1" />
            <rect class="cls-20" x="37.24" y="23.28" width="9.31" height="3.1" />
        </g>
    </g>
</svg>